<mxfile host="app.diagrams.net" agent="Mozilla/5.0 (Windows NT 10.0; Win64; x64) AppleWebKit/537.36 (KHTML, like Gecko) Chrome/133.0.0.0 Safari/537.36" version="26.0.16">
  <diagram name="Page-1" id="QCIlmgj4FcAMj7XXmacC">
    <mxGraphModel dx="4003" dy="2156" grid="1" gridSize="10" guides="1" tooltips="1" connect="1" arrows="1" fold="1" page="1" pageScale="1" pageWidth="827" pageHeight="1169" math="0" shadow="0">
      <root>
        <mxCell id="0" />
        <mxCell id="1" parent="0" />
        <UserObject label="" plantUmlData="{&quot;data&quot;:&quot;@startuml\nclass Employes {\n  +id : INT\n  +nom : VARCHAR(100)\n  +prenom : VARCHAR(100)\n  +email : VARCHAR(100)\n  +telephone : VARCHAR(20)\n  +poste : VARCHAR(50)\n  +qr_code : VARCHAR(255)\n  +date_creation : TIMESTAMP\n}\n\nclass Pointage {\n  +id : INT\n  +employe_id : INT\n  +qr_code : VARCHAR(255)\n  +heure_scan : TIMESTAMP\n  +type_scan : ENUM(&#39;entrée&#39;, &#39;sortie&#39;)\n}\n\nclass HoraireTravail {\n  +id : INT\n  +employe_id : INT\n  +jour_semaine : ENUM\n  +heure_debut : TIME\n  +heure_fin : TIME\n}\n\nEmployes \&quot;1\&quot; -- \&quot;0..*\&quot; Pointage : réalise\nEmployes \&quot;1\&quot; -- \&quot;0..*\&quot; HoraireTravail : suit\n@enduml\n&quot;,&quot;format&quot;:&quot;svg&quot;}" id="HkCyfT_QK6sZlhxP-qTj-3">
          <mxCell style="shape=image;noLabel=1;verticalAlign=top;aspect=fixed;imageAspect=0;image=data:image/svg+xml,PD94bWwgdmVyc2lvbj0iMS4wIiBlbmNvZGluZz0idXMtYXNjaWkiIHN0YW5kYWxvbmU9Im5vIj8+PHN2ZyB4bWxucz0iaHR0cDovL3d3dy53My5vcmcvMjAwMC9zdmciIHhtbG5zOnhsaW5rPSJodHRwOi8vd3d3LnczLm9yZy8xOTk5L3hsaW5rIiBjb250ZW50U3R5bGVUeXBlPSJ0ZXh0L2NzcyIgaGVpZ2h0PSIzNzlweCIgcHJlc2VydmVBc3BlY3RSYXRpbz0ibm9uZSIgc3R5bGU9IndpZHRoOjQ4OXB4O2hlaWdodDozNzlweDtiYWNrZ3JvdW5kOiNGRkZGRkY7IiB2ZXJzaW9uPSIxLjEiIHZpZXdCb3g9IjAgMCA0ODkgMzc5IiB3aWR0aD0iNDg5cHgiIHpvb21BbmRQYW49Im1hZ25pZnkiPjxkZWZzLz48Zz48IS0tY2xhc3MgRW1wbG95ZXMtLT48ZyBpZD0iZWxlbV9FbXBsb3llcyI+PHJlY3QgY29kZUxpbmU9IjEiIGZpbGw9IiNGMUYxRjEiIGhlaWdodD0iMTY3Ljg3NSIgaWQ9IkVtcGxveWVzIiByeD0iMi41IiByeT0iMi41IiBzdHlsZT0ic3Ryb2tlOiMxODE4MTg7c3Ryb2tlLXdpZHRoOjAuNTsiIHdpZHRoPSIyMDEiIHg9IjE3My41IiB5PSI3Ii8+PGVsbGlwc2UgY3g9IjI0MS4yNSIgY3k9IjIzIiBmaWxsPSIjQUREMUIyIiByeD0iMTEiIHJ5PSIxMSIgc3R5bGU9InN0cm9rZTojMTgxODE4O3N0cm9rZS13aWR0aDoxLjA7Ii8+PHBhdGggZD0iTTIzOC44NzUsMjcuMjUgTDIzOC44NzUsMjkgTDI0My44MTI1LDI5IEwyNDMuODEyNSwyNy4yNSBMMjM4Ljg3NSwyNy4yNSBaIE0yMzkuNTYyNSwyNy45Mzc1IFEyMzkuNTYyNSwyNy45Mzc1IDIzOS41NjI1LDE4Ljc1IEwyMzcuODEyNSwxOC43NSBRMjM3LjgxMjUsMTguNzUgMjM3LjgxMjUsMjcuOTM3NSBMMjM5LjU2MjUsMjcuOTM3NSBaIE0yNDMuMTI1LDI3LjkzNzUgTDI0NC44NzUsMjcuOTM3NSBRMjQ0Ljg3NSwyNy45Mzc1IDI0NC44NzUsMjUuMTI1IEwyNDMuMTI1LDI1LjEyNSBRMjQzLjEyNSwyNS4xMjUgMjQzLjEyNSwyNy45Mzc1IFogTTI0My4xMjUsMTguNzUgUTI0My4xMjUsMTguNzUgMjQzLjEyNSwyMS41NjI1IEwyNDQuODc1LDIxLjU2MjUgUTI0NC44NzUsMjEuNTYyNSAyNDQuODc1LDE4Ljc1IEwyNDMuMTI1LDE4Ljc1IFogTTIzOC44NzUsMTkuNDM3NSBMMjQzLjgxMjUsMTkuNDM3NSBMMjQzLjgxMjUsMTcuNjg3NSBMMjM4Ljg3NSwxNy42ODc1IEwyMzguODc1LDE5LjQzNzUgWiAiIGZpbGw9IiMwMDAwMDAiLz48dGV4dCBmaWxsPSIjMDAwMDAwIiBmb250LWZhbWlseT0ic2Fucy1zZXJpZiIgZm9udC1zaXplPSIxNCIgbGVuZ3RoQWRqdXN0PSJzcGFjaW5nIiB0ZXh0TGVuZ3RoPSI1NyIgeD0iMjYxLjc1IiB5PSIyOC43NDIyIj5FbXBsb3llczwvdGV4dD48bGluZSBzdHlsZT0ic3Ryb2tlOiMxODE4MTg7c3Ryb2tlLXdpZHRoOjAuNTsiIHgxPSIxNzQuNSIgeDI9IjM3My41IiB5MT0iMzkiIHkyPSIzOSIvPjxlbGxpcHNlIGN4PSIxODQuNSIgY3k9IjUxLjk5MjIiIGZpbGw9Im5vbmUiIHJ4PSIzIiByeT0iMyIgc3R5bGU9InN0cm9rZTojMDM4MDQ4O3N0cm9rZS13aWR0aDoxLjA7Ii8+PHRleHQgZmlsbD0iIzAwMDAwMCIgZm9udC1mYW1pbHk9InNhbnMtc2VyaWYiIGZvbnQtc2l6ZT0iMTQiIGxlbmd0aEFkanVzdD0ic3BhY2luZyIgdGV4dExlbmd0aD0iNTYiIHg9IjE5My41IiB5PSI1Ni4yMzQ0Ij5pZCA6IElOVDwvdGV4dD48ZWxsaXBzZSBjeD0iMTg0LjUiIGN5PSI2Ni45NzY2IiBmaWxsPSJub25lIiByeD0iMyIgcnk9IjMiIHN0eWxlPSJzdHJva2U6IzAzODA0ODtzdHJva2Utd2lkdGg6MS4wOyIvPjx0ZXh0IGZpbGw9IiMwMDAwMDAiIGZvbnQtZmFtaWx5PSJzYW5zLXNlcmlmIiBmb250LXNpemU9IjE0IiBsZW5ndGhBZGp1c3Q9InNwYWNpbmciIHRleHRMZW5ndGg9IjE3NSIgeD0iMTkzLjUiIHk9IjcxLjIxODgiPmRhdGVfY3JlYXRpb24gOiBUSU1FU1RBTVA8L3RleHQ+PGxpbmUgc3R5bGU9InN0cm9rZTojMTgxODE4O3N0cm9rZS13aWR0aDowLjU7IiB4MT0iMTc0LjUiIHgyPSIzNzMuNSIgeTE9Ijc2Ljk2ODgiIHkyPSI3Ni45Njg4Ii8+PGVsbGlwc2UgY3g9IjE4NC41IiBjeT0iODkuOTYwOSIgZmlsbD0iIzg0QkU4NCIgcng9IjMiIHJ5PSIzIiBzdHlsZT0ic3Ryb2tlOiMwMzgwNDg7c3Ryb2tlLXdpZHRoOjEuMDsiLz48dGV4dCBmaWxsPSIjMDAwMDAwIiBmb250LWZhbWlseT0ic2Fucy1zZXJpZiIgZm9udC1zaXplPSIxNCIgbGVuZ3RoQWRqdXN0PSJzcGFjaW5nIiB0ZXh0TGVuZ3RoPSIxMjkiIHg9IjE5My41IiB5PSI5NC4yMDMxIj5ub20gOiBWQVJDSEFSKDEwMCk8L3RleHQ+PGVsbGlwc2UgY3g9IjE4NC41IiBjeT0iMTA0Ljk0NTMiIGZpbGw9IiM4NEJFODQiIHJ4PSIzIiByeT0iMyIgc3R5bGU9InN0cm9rZTojMDM4MDQ4O3N0cm9rZS13aWR0aDoxLjA7Ii8+PHRleHQgZmlsbD0iIzAwMDAwMCIgZm9udC1mYW1pbHk9InNhbnMtc2VyaWYiIGZvbnQtc2l6ZT0iMTQiIGxlbmd0aEFkanVzdD0ic3BhY2luZyIgdGV4dExlbmd0aD0iMTUwIiB4PSIxOTMuNSIgeT0iMTA5LjE4NzUiPnByZW5vbSA6IFZBUkNIQVIoMTAwKTwvdGV4dD48ZWxsaXBzZSBjeD0iMTg0LjUiIGN5PSIxMTkuOTI5NyIgZmlsbD0iIzg0QkU4NCIgcng9IjMiIHJ5PSIzIiBzdHlsZT0ic3Ryb2tlOiMwMzgwNDg7c3Ryb2tlLXdpZHRoOjEuMDsiLz48dGV4dCBmaWxsPSIjMDAwMDAwIiBmb250LWZhbWlseT0ic2Fucy1zZXJpZiIgZm9udC1zaXplPSIxNCIgbGVuZ3RoQWRqdXN0PSJzcGFjaW5nIiB0ZXh0TGVuZ3RoPSIxNDMiIHg9IjE5My41IiB5PSIxMjQuMTcxOSI+ZW1haWwgOiBWQVJDSEFSKDEwMCk8L3RleHQ+PGVsbGlwc2UgY3g9IjE4NC41IiBjeT0iMTM0LjkxNDEiIGZpbGw9IiM4NEJFODQiIHJ4PSIzIiByeT0iMyIgc3R5bGU9InN0cm9rZTojMDM4MDQ4O3N0cm9rZS13aWR0aDoxLjA7Ii8+PHRleHQgZmlsbD0iIzAwMDAwMCIgZm9udC1mYW1pbHk9InNhbnMtc2VyaWYiIGZvbnQtc2l6ZT0iMTQiIGxlbmd0aEFkanVzdD0ic3BhY2luZyIgdGV4dExlbmd0aD0iMTYzIiB4PSIxOTMuNSIgeT0iMTM5LjE1NjMiPnRlbGVwaG9uZSA6IFZBUkNIQVIoMjApPC90ZXh0PjxlbGxpcHNlIGN4PSIxODQuNSIgY3k9IjE0OS44OTg0IiBmaWxsPSIjODRCRTg0IiByeD0iMyIgcnk9IjMiIHN0eWxlPSJzdHJva2U6IzAzODA0ODtzdHJva2Utd2lkdGg6MS4wOyIvPjx0ZXh0IGZpbGw9IiMwMDAwMDAiIGZvbnQtZmFtaWx5PSJzYW5zLXNlcmlmIiBmb250LXNpemU9IjE0IiBsZW5ndGhBZGp1c3Q9InNwYWNpbmciIHRleHRMZW5ndGg9IjEzNSIgeD0iMTkzLjUiIHk9IjE1NC4xNDA2Ij5wb3N0ZSA6IFZBUkNIQVIoNTApPC90ZXh0PjxlbGxpcHNlIGN4PSIxODQuNSIgY3k9IjE2NC44ODI4IiBmaWxsPSIjODRCRTg0IiByeD0iMyIgcnk9IjMiIHN0eWxlPSJzdHJva2U6IzAzODA0ODtzdHJva2Utd2lkdGg6MS4wOyIvPjx0ZXh0IGZpbGw9IiMwMDAwMDAiIGZvbnQtZmFtaWx5PSJzYW5zLXNlcmlmIiBmb250LXNpemU9IjE0IiBsZW5ndGhBZGp1c3Q9InNwYWNpbmciIHRleHRMZW5ndGg9IjE1NiIgeD0iMTkzLjUiIHk9IjE2OS4xMjUiPnFyX2NvZGUgOiBWQVJDSEFSKDI1NSk8L3RleHQ+PC9nPjwhLS1jbGFzcyBQb2ludGFnZS0tPjxnIGlkPSJlbGVtX1BvaW50YWdlIj48cmVjdCBjb2RlTGluZT0iMTIiIGZpbGw9IiNGMUYxRjEiIGhlaWdodD0iMTIyLjkyMTkiIGlkPSJQb2ludGFnZSIgcng9IjIuNSIgcnk9IjIuNSIgc3R5bGU9InN0cm9rZTojMTgxODE4O3N0cm9rZS13aWR0aDowLjU7IiB3aWR0aD0iMjgwIiB4PSI3IiB5PSIyNTAiLz48ZWxsaXBzZSBjeD0iMTE0Ljc1IiBjeT0iMjY2IiBmaWxsPSIjQUREMUIyIiByeD0iMTEiIHJ5PSIxMSIgc3R5bGU9InN0cm9rZTojMTgxODE4O3N0cm9rZS13aWR0aDoxLjA7Ii8+PHBhdGggZD0iTTExMi4zNzUsMjcwLjI1IEwxMTIuMzc1LDI3MiBMMTE3LjMxMjUsMjcyIEwxMTcuMzEyNSwyNzAuMjUgTDExMi4zNzUsMjcwLjI1IFogTTExMy4wNjI1LDI3MC45Mzc1IFExMTMuMDYyNSwyNzAuOTM3NSAxMTMuMDYyNSwyNjEuNzUgTDExMS4zMTI1LDI2MS43NSBRMTExLjMxMjUsMjYxLjc1IDExMS4zMTI1LDI3MC45Mzc1IEwxMTMuMDYyNSwyNzAuOTM3NSBaIE0xMTYuNjI1LDI3MC45Mzc1IEwxMTguMzc1LDI3MC45Mzc1IFExMTguMzc1LDI3MC45Mzc1IDExOC4zNzUsMjY4LjEyNSBMMTE2LjYyNSwyNjguMTI1IFExMTYuNjI1LDI2OC4xMjUgMTE2LjYyNSwyNzAuOTM3NSBaIE0xMTYuNjI1LDI2MS43NSBRMTE2LjYyNSwyNjEuNzUgMTE2LjYyNSwyNjQuNTYyNSBMMTE4LjM3NSwyNjQuNTYyNSBRMTE4LjM3NSwyNjQuNTYyNSAxMTguMzc1LDI2MS43NSBMMTE2LjYyNSwyNjEuNzUgWiBNMTEyLjM3NSwyNjIuNDM3NSBMMTE3LjMxMjUsMjYyLjQzNzUgTDExNy4zMTI1LDI2MC42ODc1IEwxMTIuMzc1LDI2MC42ODc1IEwxMTIuMzc1LDI2Mi40Mzc1IFogIiBmaWxsPSIjMDAwMDAwIi8+PHRleHQgZmlsbD0iIzAwMDAwMCIgZm9udC1mYW1pbHk9InNhbnMtc2VyaWYiIGZvbnQtc2l6ZT0iMTQiIGxlbmd0aEFkanVzdD0ic3BhY2luZyIgdGV4dExlbmd0aD0iNTYiIHg9IjEzNS4yNSIgeT0iMjcxLjc0MjIiPlBvaW50YWdlPC90ZXh0PjxsaW5lIHN0eWxlPSJzdHJva2U6IzE4MTgxODtzdHJva2Utd2lkdGg6MC41OyIgeDE9IjgiIHgyPSIyODYiIHkxPSIyODIiIHkyPSIyODIiLz48ZWxsaXBzZSBjeD0iMTgiIGN5PSIyOTQuOTkyMiIgZmlsbD0ibm9uZSIgcng9IjMiIHJ5PSIzIiBzdHlsZT0ic3Ryb2tlOiMwMzgwNDg7c3Ryb2tlLXdpZHRoOjEuMDsiLz48dGV4dCBmaWxsPSIjMDAwMDAwIiBmb250LWZhbWlseT0ic2Fucy1zZXJpZiIgZm9udC1zaXplPSIxNCIgbGVuZ3RoQWRqdXN0PSJzcGFjaW5nIiB0ZXh0TGVuZ3RoPSI1NiIgeD0iMjciIHk9IjI5OS4yMzQ0Ij5pZCA6IElOVDwvdGV4dD48ZWxsaXBzZSBjeD0iMTgiIGN5PSIzMDkuOTc2NiIgZmlsbD0ibm9uZSIgcng9IjMiIHJ5PSIzIiBzdHlsZT0ic3Ryb2tlOiMwMzgwNDg7c3Ryb2tlLXdpZHRoOjEuMDsiLz48dGV4dCBmaWxsPSIjMDAwMDAwIiBmb250LWZhbWlseT0ic2Fucy1zZXJpZiIgZm9udC1zaXplPSIxNCIgbGVuZ3RoQWRqdXN0PSJzcGFjaW5nIiB0ZXh0TGVuZ3RoPSIxMTMiIHg9IjI3IiB5PSIzMTQuMjE4OCI+ZW1wbG95ZV9pZCA6IElOVDwvdGV4dD48ZWxsaXBzZSBjeD0iMTgiIGN5PSIzMjQuOTYwOSIgZmlsbD0ibm9uZSIgcng9IjMiIHJ5PSIzIiBzdHlsZT0ic3Ryb2tlOiMwMzgwNDg7c3Ryb2tlLXdpZHRoOjEuMDsiLz48dGV4dCBmaWxsPSIjMDAwMDAwIiBmb250LWZhbWlseT0ic2Fucy1zZXJpZiIgZm9udC1zaXplPSIxNCIgbGVuZ3RoQWRqdXN0PSJzcGFjaW5nIiB0ZXh0TGVuZ3RoPSIxNTQiIHg9IjI3IiB5PSIzMjkuMjAzMSI+aGV1cmVfc2NhbiA6IFRJTUVTVEFNUDwvdGV4dD48bGluZSBzdHlsZT0ic3Ryb2tlOiMxODE4MTg7c3Ryb2tlLXdpZHRoOjAuNTsiIHgxPSI4IiB4Mj0iMjg2IiB5MT0iMzM0Ljk1MzEiIHkyPSIzMzQuOTUzMSIvPjxlbGxpcHNlIGN4PSIxOCIgY3k9IjM0Ny45NDUzIiBmaWxsPSIjODRCRTg0IiByeD0iMyIgcnk9IjMiIHN0eWxlPSJzdHJva2U6IzAzODA0ODtzdHJva2Utd2lkdGg6MS4wOyIvPjx0ZXh0IGZpbGw9IiMwMDAwMDAiIGZvbnQtZmFtaWx5PSJzYW5zLXNlcmlmIiBmb250LXNpemU9IjE0IiBsZW5ndGhBZGp1c3Q9InNwYWNpbmciIHRleHRMZW5ndGg9IjE1NiIgeD0iMjciIHk9IjM1Mi4xODc1Ij5xcl9jb2RlIDogVkFSQ0hBUigyNTUpPC90ZXh0PjxlbGxpcHNlIGN4PSIxOCIgY3k9IjM2Mi45Mjk3IiBmaWxsPSIjODRCRTg0IiByeD0iMyIgcnk9IjMiIHN0eWxlPSJzdHJva2U6IzAzODA0ODtzdHJva2Utd2lkdGg6MS4wOyIvPjx0ZXh0IGZpbGw9IiMwMDAwMDAiIGZvbnQtZmFtaWx5PSJzYW5zLXNlcmlmIiBmb250LXNpemU9IjE0IiBsZW5ndGhBZGp1c3Q9InNwYWNpbmciIHRleHRMZW5ndGg9IjI1NCIgeD0iMjciIHk9IjM2Ny4xNzE5Ij50eXBlX3NjYW4gOiBFTlVNKCdlbnRyJiMyMzM7ZScsICdzb3J0aWUnKTwvdGV4dD48L2c+PCEtLWNsYXNzIEhvcmFpcmVUcmF2YWlsLS0+PGcgaWQ9ImVsZW1fSG9yYWlyZVRyYXZhaWwiPjxyZWN0IGNvZGVMaW5lPSIyMCIgZmlsbD0iI0YxRjFGMSIgaGVpZ2h0PSIxMjIuOTIxOSIgaWQ9IkhvcmFpcmVUcmF2YWlsIiByeD0iMi41IiByeT0iMi41IiBzdHlsZT0ic3Ryb2tlOiMxODE4MTg7c3Ryb2tlLXdpZHRoOjAuNTsiIHdpZHRoPSIxNjAiIHg9IjMyMiIgeT0iMjUwIi8+PGVsbGlwc2UgY3g9IjM1MC41IiBjeT0iMjY2IiBmaWxsPSIjQUREMUIyIiByeD0iMTEiIHJ5PSIxMSIgc3R5bGU9InN0cm9rZTojMTgxODE4O3N0cm9rZS13aWR0aDoxLjA7Ii8+PHBhdGggZD0iTTM0OC4xMjUsMjcwLjI1IEwzNDguMTI1LDI3MiBMMzUzLjA2MjUsMjcyIEwzNTMuMDYyNSwyNzAuMjUgTDM0OC4xMjUsMjcwLjI1IFogTTM0OC44MTI1LDI3MC45Mzc1IFEzNDguODEyNSwyNzAuOTM3NSAzNDguODEyNSwyNjEuNzUgTDM0Ny4wNjI1LDI2MS43NSBRMzQ3LjA2MjUsMjYxLjc1IDM0Ny4wNjI1LDI3MC45Mzc1IEwzNDguODEyNSwyNzAuOTM3NSBaIE0zNTIuMzc1LDI3MC45Mzc1IEwzNTQuMTI1LDI3MC45Mzc1IFEzNTQuMTI1LDI3MC45Mzc1IDM1NC4xMjUsMjY4LjEyNSBMMzUyLjM3NSwyNjguMTI1IFEzNTIuMzc1LDI2OC4xMjUgMzUyLjM3NSwyNzAuOTM3NSBaIE0zNTIuMzc1LDI2MS43NSBRMzUyLjM3NSwyNjEuNzUgMzUyLjM3NSwyNjQuNTYyNSBMMzU0LjEyNSwyNjQuNTYyNSBRMzU0LjEyNSwyNjQuNTYyNSAzNTQuMTI1LDI2MS43NSBMMzUyLjM3NSwyNjEuNzUgWiBNMzQ4LjEyNSwyNjIuNDM3NSBMMzUzLjA2MjUsMjYyLjQzNzUgTDM1My4wNjI1LDI2MC42ODc1IEwzNDguMTI1LDI2MC42ODc1IEwzNDguMTI1LDI2Mi40Mzc1IFogIiBmaWxsPSIjMDAwMDAwIi8+PHRleHQgZmlsbD0iIzAwMDAwMCIgZm9udC1mYW1pbHk9InNhbnMtc2VyaWYiIGZvbnQtc2l6ZT0iMTQiIGxlbmd0aEFkanVzdD0ic3BhY2luZyIgdGV4dExlbmd0aD0iOTgiIHg9IjM2Ny41IiB5PSIyNzEuNzQyMiI+SG9yYWlyZVRyYXZhaWw8L3RleHQ+PGxpbmUgc3R5bGU9InN0cm9rZTojMTgxODE4O3N0cm9rZS13aWR0aDowLjU7IiB4MT0iMzIzIiB4Mj0iNDgxIiB5MT0iMjgyIiB5Mj0iMjgyIi8+PGVsbGlwc2UgY3g9IjMzMyIgY3k9IjI5NC45OTIyIiBmaWxsPSJub25lIiByeD0iMyIgcnk9IjMiIHN0eWxlPSJzdHJva2U6IzAzODA0ODtzdHJva2Utd2lkdGg6MS4wOyIvPjx0ZXh0IGZpbGw9IiMwMDAwMDAiIGZvbnQtZmFtaWx5PSJzYW5zLXNlcmlmIiBmb250LXNpemU9IjE0IiBsZW5ndGhBZGp1c3Q9InNwYWNpbmciIHRleHRMZW5ndGg9IjU2IiB4PSIzNDIiIHk9IjI5OS4yMzQ0Ij5pZCA6IElOVDwvdGV4dD48ZWxsaXBzZSBjeD0iMzMzIiBjeT0iMzA5Ljk3NjYiIGZpbGw9Im5vbmUiIHJ4PSIzIiByeT0iMyIgc3R5bGU9InN0cm9rZTojMDM4MDQ4O3N0cm9rZS13aWR0aDoxLjA7Ii8+PHRleHQgZmlsbD0iIzAwMDAwMCIgZm9udC1mYW1pbHk9InNhbnMtc2VyaWYiIGZvbnQtc2l6ZT0iMTQiIGxlbmd0aEFkanVzdD0ic3BhY2luZyIgdGV4dExlbmd0aD0iMTEzIiB4PSIzNDIiIHk9IjMxNC4yMTg4Ij5lbXBsb3llX2lkIDogSU5UPC90ZXh0PjxlbGxpcHNlIGN4PSIzMzMiIGN5PSIzMjQuOTYwOSIgZmlsbD0ibm9uZSIgcng9IjMiIHJ5PSIzIiBzdHlsZT0ic3Ryb2tlOiMwMzgwNDg7c3Ryb2tlLXdpZHRoOjEuMDsiLz48dGV4dCBmaWxsPSIjMDAwMDAwIiBmb250LWZhbWlseT0ic2Fucy1zZXJpZiIgZm9udC1zaXplPSIxNCIgbGVuZ3RoQWRqdXN0PSJzcGFjaW5nIiB0ZXh0TGVuZ3RoPSIxMzQiIHg9IjM0MiIgeT0iMzI5LjIwMzEiPmpvdXJfc2VtYWluZSA6IEVOVU08L3RleHQ+PGVsbGlwc2UgY3g9IjMzMyIgY3k9IjMzOS45NDUzIiBmaWxsPSJub25lIiByeD0iMyIgcnk9IjMiIHN0eWxlPSJzdHJva2U6IzAzODA0ODtzdHJva2Utd2lkdGg6MS4wOyIvPjx0ZXh0IGZpbGw9IiMwMDAwMDAiIGZvbnQtZmFtaWx5PSJzYW5zLXNlcmlmIiBmb250LXNpemU9IjE0IiBsZW5ndGhBZGp1c3Q9InNwYWNpbmciIHRleHRMZW5ndGg9IjEyNiIgeD0iMzQyIiB5PSIzNDQuMTg3NSI+aGV1cmVfZGVidXQgOiBUSU1FPC90ZXh0PjxlbGxpcHNlIGN4PSIzMzMiIGN5PSIzNTQuOTI5NyIgZmlsbD0ibm9uZSIgcng9IjMiIHJ5PSIzIiBzdHlsZT0ic3Ryb2tlOiMwMzgwNDg7c3Ryb2tlLXdpZHRoOjEuMDsiLz48dGV4dCBmaWxsPSIjMDAwMDAwIiBmb250LWZhbWlseT0ic2Fucy1zZXJpZiIgZm9udC1zaXplPSIxNCIgbGVuZ3RoQWRqdXN0PSJzcGFjaW5nIiB0ZXh0TGVuZ3RoPSIxMTIiIHg9IjM0MiIgeT0iMzU5LjE3MTkiPmhldXJlX2ZpbiA6IFRJTUU8L3RleHQ+PGxpbmUgc3R5bGU9InN0cm9rZTojMTgxODE4O3N0cm9rZS13aWR0aDowLjU7IiB4MT0iMzIzIiB4Mj0iNDgxIiB5MT0iMzY0LjkyMTkiIHkyPSIzNjQuOTIxOSIvPjwvZz48IS0tbGluayBFbXBsb3llcyB0byBQb2ludGFnZS0tPjxnIGlkPSJsaW5rX0VtcGxveWVzX1BvaW50YWdlIj48cGF0aCBjb2RlTGluZT0iMjgiIGQ9Ik0yMjUuNjIsMTc1LjIzIEMyMTEuMTgsMjAwLjA3IDE5NS42NCwyMjYuODIgMTgyLjIxLDI0OS45MiAiIGZpbGw9Im5vbmUiIGlkPSJFbXBsb3llcy1Qb2ludGFnZSIgc3R5bGU9InN0cm9rZTojMTgxODE4O3N0cm9rZS13aWR0aDoxLjA7Ii8+PHRleHQgZmlsbD0iIzAwMDAwMCIgZm9udC1mYW1pbHk9InNhbnMtc2VyaWYiIGZvbnQtc2l6ZT0iMTMiIGxlbmd0aEFkanVzdD0ic3BhY2luZyIgdGV4dExlbmd0aD0iNDciIHg9IjIwOCIgeT0iMjE4LjI4OTEiPnImIzIzMzthbGlzZTwvdGV4dD48dGV4dCBmaWxsPSIjMDAwMDAwIiBmb250LWZhbWlseT0ic2Fucy1zZXJpZiIgZm9udC1zaXplPSIxMyIgbGVuZ3RoQWRqdXN0PSJzcGFjaW5nIiB0ZXh0TGVuZ3RoPSI3IiB4PSIyMTQuMzIzNyIgeT0iMTk1LjA3NTciPjE8L3RleHQ+PHRleHQgZmlsbD0iIzAwMDAwMCIgZm9udC1mYW1pbHk9InNhbnMtc2VyaWYiIGZvbnQtc2l6ZT0iMTMiIGxlbmd0aEFkanVzdD0ic3BhY2luZyIgdGV4dExlbmd0aD0iMjUiIHg9IjE2MC4xMTk3IiB5PSIyNDAuNTQ5OSI+MC4uKjwvdGV4dD48L2c+PCEtLWxpbmsgRW1wbG95ZXMgdG8gSG9yYWlyZVRyYXZhaWwtLT48ZyBpZD0ibGlua19FbXBsb3llc19Ib3JhaXJlVHJhdmFpbCI+PHBhdGggY29kZUxpbmU9IjI5IiBkPSJNMzIyLjc2LDE3NS4yMyBDMzM3LjMxLDIwMC4wNyAzNTIuOTgsMjI2LjgyIDM2Ni41MSwyNDkuOTIgIiBmaWxsPSJub25lIiBpZD0iRW1wbG95ZXMtSG9yYWlyZVRyYXZhaWwiIHN0eWxlPSJzdHJva2U6IzE4MTgxODtzdHJva2Utd2lkdGg6MS4wOyIvPjx0ZXh0IGZpbGw9IiMwMDAwMDAiIGZvbnQtZmFtaWx5PSJzYW5zLXNlcmlmIiBmb250LXNpemU9IjEzIiBsZW5ndGhBZGp1c3Q9InNwYWNpbmciIHRleHRMZW5ndGg9IjI2IiB4PSIzNDYiIHk9IjIxOC4yODkxIj5zdWl0PC90ZXh0Pjx0ZXh0IGZpbGw9IiMwMDAwMDAiIGZvbnQtZmFtaWx5PSJzYW5zLXNlcmlmIiBmb250LXNpemU9IjEzIiBsZW5ndGhBZGp1c3Q9InNwYWNpbmciIHRleHRMZW5ndGg9IjciIHg9IjMxOS41MDgxIiB5PSIxOTUuMDc1NyI+MTwvdGV4dD48dGV4dCBmaWxsPSIjMDAwMDAwIiBmb250LWZhbWlseT0ic2Fucy1zZXJpZiIgZm9udC1zaXplPSIxMyIgbGVuZ3RoQWRqdXN0PSJzcGFjaW5nIiB0ZXh0TGVuZ3RoPSIyNSIgeD0iMzM1LjM2MTMiIHk9IjI0MC41NDk5Ij4wLi4qPC90ZXh0PjwvZz48IS0tU1JDPVtaUDUxSmlDbTQ0TnRFU0tlY3hIMGduR2ZjLW1ZNUFiVGZBZkFPNmt2cGEyRDRhLW03UUdBU0kzRW1TTThxekFhcTRoaXhGejdkbFVfSFNjRFdSSWdJemdYV05TRnU1ZU00Q0RZY1JrcGVnZ3pGMlJoa3RjbzdpdDJTRXBLTWtEdjBvaWtvcEV3bkhCaEJJYVNVQlU3anlaT2VIcGp2TFZEMTFLZHlyN0tFR010bzhINlJZTWZyaXlOTU5nVjl6ZEEtXzB5cVVMUGFMSU1GLUZWRkJYRm9lUlF2TExSUjNHbzhfWmY3WFRlTG4tRFRGY0daRzlLTGR6ek9kMDNXSTVqOUdSWjdjWEVjYWtEa1VQbGhnMV9PUnJHZXZiblpOUXJrSXF6S3U2Um5Yd1dVbEw5X2Uyd3JTVFZ6TVMtSjJSV1h6RmZiVC1ONHFDQnA0amZ5REJlQi1tT0oyRmpEbTAwXS0tPjwvZz48L3N2Zz4=;" vertex="1" parent="1">
            <mxGeometry x="300" y="30" width="489" height="379" as="geometry" />
          </mxCell>
        </UserObject>
        <UserObject label="" plantUmlData="{&quot;data&quot;:&quot;@startuml\nleft to right direction\n\nactor \&quot;Administrateur\&quot; as Admin\nactor \&quot;Employé\&quot; as Employe\n\nrectangle \&quot;Système de Gestion des Employés\&quot; {\n  usecase \&quot;Gérer les employés\&quot; as UC1\n  usecase \&quot;Générer QR Code\&quot; as UC2\n  usecase \&quot;Scanner QR Code (Pointage)\&quot; as UC3\n  usecase \&quot;Consulter les présences\&quot; as UC4\n  usecase \&quot;Définir horaires de travail\&quot; as UC5\n}\n\nAdmin --&gt; UC1\nAdmin --&gt; UC2\nAdmin --&gt; UC4\nAdmin --&gt; UC5\nEmploye --&gt; UC3\n@enduml\n&quot;,&quot;format&quot;:&quot;svg&quot;}" id="HkCyfT_QK6sZlhxP-qTj-4">
          <mxCell style="shape=image;noLabel=1;verticalAlign=top;aspect=fixed;imageAspect=0;image=data:image/svg+xml,PD94bWwgdmVyc2lvbj0iMS4wIiBlbmNvZGluZz0idXMtYXNjaWkiIHN0YW5kYWxvbmU9Im5vIj8+PHN2ZyB4bWxucz0iaHR0cDovL3d3dy53My5vcmcvMjAwMC9zdmciIHhtbG5zOnhsaW5rPSJodHRwOi8vd3d3LnczLm9yZy8xOTk5L3hsaW5rIiBjb250ZW50U3R5bGVUeXBlPSJ0ZXh0L2NzcyIgaGVpZ2h0PSI0MTZweCIgcHJlc2VydmVBc3BlY3RSYXRpbz0ibm9uZSIgc3R5bGU9IndpZHRoOjQwOHB4O2hlaWdodDo0MTZweDtiYWNrZ3JvdW5kOiNGRkZGRkY7IiB2ZXJzaW9uPSIxLjEiIHZpZXdCb3g9IjAgMCA0MDggNDE2IiB3aWR0aD0iNDA4cHgiIHpvb21BbmRQYW49Im1hZ25pZnkiPjxkZWZzLz48Zz48IS0tY2x1c3RlciBTeXN0P21lIGRlIEdlc3Rpb24gZGVzIEVtcGxveT9zLS0+PGcgaWQ9ImNsdXN0ZXJfU3lzdCYjMjMyO21lIGRlIEdlc3Rpb24gZGVzIEVtcGxveSYjMjMzO3MiPjxyZWN0IGZpbGw9Im5vbmUiIGhlaWdodD0iNDAzIiByeD0iMi41IiByeT0iMi41IiBzdHlsZT0ic3Ryb2tlOiMxODE4MTg7c3Ryb2tlLXdpZHRoOjEuMDsiIHdpZHRoPSIyNTMiIHg9IjE0OSIgeT0iNyIvPjx0ZXh0IGZpbGw9IiMwMDAwMDAiIGZvbnQtZmFtaWx5PSJzYW5zLXNlcmlmIiBmb250LXNpemU9IjE0IiBmb250LXdlaWdodD0iYm9sZCIgbGVuZ3RoQWRqdXN0PSJzcGFjaW5nIiB0ZXh0TGVuZ3RoPSIyMTkiIHg9IjE2NiIgeT0iMjIuMjM0NCI+U3lzdCYjMjMyO21lIGRlIEdlc3Rpb24gZGVzIEVtcGxveSYjMjMzO3M8L3RleHQ+PC9nPjxnIGlkPSJlbGVtX1VDMSI+PGVsbGlwc2UgY3g9IjI3NS40NTMiIGN5PSIxNDMuNzkwNiIgZmlsbD0iI0YxRjFGMSIgcng9IjgxLjk1MyIgcnk9IjE4Ljc5MDYiIHN0eWxlPSJzdHJva2U6IzE4MTgxODtzdHJva2Utd2lkdGg6MC41OyIvPjx0ZXh0IGZpbGw9IiMwMDAwMDAiIGZvbnQtZmFtaWx5PSJzYW5zLXNlcmlmIiBmb250LXNpemU9IjE0IiBsZW5ndGhBZGp1c3Q9InNwYWNpbmciIHRleHRMZW5ndGg9IjEyNyIgeD0iMjExLjk1MyIgeT0iMTQ3LjUzMjgiPkcmIzIzMztyZXIgbGVzIGVtcGxveSYjMjMzO3M8L3RleHQ+PC9nPjxnIGlkPSJlbGVtX1VDMiI+PGVsbGlwc2UgY3g9IjI3NS40NjYzIiBjeT0iMjE0Ljg5MzMiIGZpbGw9IiNGMUYxRjEiIHJ4PSI3Mi40NjYzIiByeT0iMTYuODkzMyIgc3R5bGU9InN0cm9rZTojMTgxODE4O3N0cm9rZS13aWR0aDowLjU7Ii8+PHRleHQgZmlsbD0iIzAwMDAwMCIgZm9udC1mYW1pbHk9InNhbnMtc2VyaWYiIGZvbnQtc2l6ZT0iMTQiIGxlbmd0aEFkanVzdD0ic3BhY2luZyIgdGV4dExlbmd0aD0iMTA1IiB4PSIyMjIuOTY2MyIgeT0iMjE4LjYzNTUiPkcmIzIzMztuJiMyMzM7cmVyIFFSIENvZGU8L3RleHQ+PC9nPjxnIGlkPSJlbGVtX1VDMyI+PGVsbGlwc2UgY3g9IjI3NS40MTU4IiBjeT0iMzY5Ljk4MzIiIGZpbGw9IiNGMUYxRjEiIHJ4PSIxMDcuOTE1OCIgcnk9IjIzLjk4MzIiIHN0eWxlPSJzdHJva2U6IzE4MTgxODtzdHJva2Utd2lkdGg6MC41OyIvPjx0ZXh0IGZpbGw9IiMwMDAwMDAiIGZvbnQtZmFtaWx5PSJzYW5zLXNlcmlmIiBmb250LXNpemU9IjE0IiBsZW5ndGhBZGp1c3Q9InNwYWNpbmciIHRleHRMZW5ndGg9IjE4NCIgeD0iMTgzLjQxNTgiIHk9IjM3My43MjUzIj5TY2FubmVyIFFSIENvZGUgKFBvaW50YWdlKTwvdGV4dD48L2c+PGcgaWQ9ImVsZW1fVUM0Ij48ZWxsaXBzZSBjeD0iMjc1LjI2MzMiIGN5PSIyODguODUyNyIgZmlsbD0iI0YxRjFGMSIgcng9Ijk3LjI2MzMiIHJ5PSIyMS44NTI3IiBzdHlsZT0ic3Ryb2tlOiMxODE4MTg7c3Ryb2tlLXdpZHRoOjAuNTsiLz48dGV4dCBmaWxsPSIjMDAwMDAwIiBmb250LWZhbWlseT0ic2Fucy1zZXJpZiIgZm9udC1zaXplPSIxNCIgbGVuZ3RoQWRqdXN0PSJzcGFjaW5nIiB0ZXh0TGVuZ3RoPSIxNjEiIHg9IjE5NC43NjMzIiB5PSIyOTIuNTk0OCI+Q29uc3VsdGVyIGxlcyBwciYjMjMzO3NlbmNlczwvdGV4dD48L2c+PGcgaWQ9ImVsZW1fVUM1Ij48ZWxsaXBzZSBjeD0iMjc1LjI1NDciIGN5PSI2NC45NTA5IiBmaWxsPSIjRjFGMUYxIiByeD0iMTEwLjI1NDciIHJ5PSIyNC40NTA5IiBzdHlsZT0ic3Ryb2tlOiMxODE4MTg7c3Ryb2tlLXdpZHRoOjAuNTsiLz48dGV4dCBmaWxsPSIjMDAwMDAwIiBmb250LWZhbWlseT0ic2Fucy1zZXJpZiIgZm9udC1zaXplPSIxNCIgbGVuZ3RoQWRqdXN0PSJzcGFjaW5nIiB0ZXh0TGVuZ3RoPSIxODkiIHg9IjE4MC43NTQ3IiB5PSI2OC42OTMxIj5EJiMyMzM7ZmluaXIgaG9yYWlyZXMgZGUgdHJhdmFpbDwvdGV4dD48L2c+PCEtLWVudGl0eSBBZG1pbi0tPjxnIGlkPSJlbGVtX0FkbWluIj48ZWxsaXBzZSBjeD0iNTUuNSIgY3k9IjE1MSIgZmlsbD0iI0YxRjFGMSIgcng9IjgiIHJ5PSI4IiBzdHlsZT0ic3Ryb2tlOiMxODE4MTg7c3Ryb2tlLXdpZHRoOjAuNTsiLz48cGF0aCBkPSJNNTUuNSwxNTkgTDU1LjUsMTg2IE00Mi41LDE2NyBMNjguNSwxNjcgTTU1LjUsMTg2IEw0Mi41LDIwMSBNNTUuNSwxODYgTDY4LjUsMjAxICIgZmlsbD0ibm9uZSIgc3R5bGU9InN0cm9rZTojMTgxODE4O3N0cm9rZS13aWR0aDowLjU7Ii8+PHRleHQgZmlsbD0iIzAwMDAwMCIgZm9udC1mYW1pbHk9InNhbnMtc2VyaWYiIGZvbnQtc2l6ZT0iMTQiIGxlbmd0aEFkanVzdD0ic3BhY2luZyIgdGV4dExlbmd0aD0iOTkiIHg9IjYiIHk9IjIxNS43MzQ0Ij5BZG1pbmlzdHJhdGV1cjwvdGV4dD48L2c+PCEtLWVudGl0eSBFbXBsb3llLS0+PGcgaWQ9ImVsZW1fRW1wbG95ZSI+PGVsbGlwc2UgY3g9IjU1LjUiIGN5PSIzNDEiIGZpbGw9IiNGMUYxRjEiIHJ4PSI4IiByeT0iOCIgc3R5bGU9InN0cm9rZTojMTgxODE4O3N0cm9rZS13aWR0aDowLjU7Ii8+PHBhdGggZD0iTTU1LjUsMzQ5IEw1NS41LDM3NiBNNDIuNSwzNTcgTDY4LjUsMzU3IE01NS41LDM3NiBMNDIuNSwzOTEgTTU1LjUsMzc2IEw2OC41LDM5MSAiIGZpbGw9Im5vbmUiIHN0eWxlPSJzdHJva2U6IzE4MTgxODtzdHJva2Utd2lkdGg6MC41OyIvPjx0ZXh0IGZpbGw9IiMwMDAwMDAiIGZvbnQtZmFtaWx5PSJzYW5zLXNlcmlmIiBmb250LXNpemU9IjE0IiBsZW5ndGhBZGp1c3Q9InNwYWNpbmciIHRleHRMZW5ndGg9IjUwIiB4PSIzMC41IiB5PSI0MDUuNzM0NCI+RW1wbG95JiMyMzM7PC90ZXh0PjwvZz48IS0tbGluayBBZG1pbiB0byBVQzEtLT48ZyBpZD0ibGlua19BZG1pbl9VQzEiPjxwYXRoIGQ9Ik0xMDUuMTUsMTcxLjk3IEMxMzUuNTIsMTY2Ljk1IDE2OS4wOTAzLDE2MS40MDg2IDIwMi4zMDAzLDE1NS45MTg2ICIgZmlsbD0ibm9uZSIgaWQ9IkFkbWluLXRvLVVDMSIgc3R5bGU9InN0cm9rZTojMTgxODE4O3N0cm9rZS13aWR0aDoxLjA7Ii8+PHBvbHlnb24gZmlsbD0iIzE4MTgxOCIgcG9pbnRzPSIyMDguMjIsMTU0Ljk0LDE5OC42ODgxLDE1Mi40NjE0LDIwMy4yODcsMTU1Ljc1NTUsMTk5Ljk5MjksMTYwLjM1NDMsMjA4LjIyLDE1NC45NCIgc3R5bGU9InN0cm9rZTojMTgxODE4O3N0cm9rZS13aWR0aDoxLjA7Ii8+PC9nPjwhLS1saW5rIEFkbWluIHRvIFVDMi0tPjxnIGlkPSJsaW5rX0FkbWluX1VDMiI+PHBhdGggZD0iTTEwNS4xNSwxODcuODEgQzEzNy42NSwxOTMuMDMgMTc0LjY4NTgsMTk4Ljk3OSAyMDkuMTk1OCwyMDQuNTE5ICIgZmlsbD0ibm9uZSIgaWQ9IkFkbWluLXRvLVVDMiIgc3R5bGU9InN0cm9rZTojMTgxODE4O3N0cm9rZS13aWR0aDoxLjA7Ii8+PHBvbHlnb24gZmlsbD0iIzE4MTgxOCIgcG9pbnRzPSIyMTUuMTIsMjA1LjQ3LDIwNi44Njc4LDIwMC4wOTQsMjEwLjE4MzIsMjA0LjY3NzUsMjA1LjU5OTgsMjA3Ljk5MjksMjE1LjEyLDIwNS40NyIgc3R5bGU9InN0cm9rZTojMTgxODE4O3N0cm9rZS13aWR0aDoxLjA7Ii8+PC9nPjwhLS1saW5rIEFkbWluIHRvIFVDNC0tPjxnIGlkPSJsaW5rX0FkbWluX1VDNCI+PHBhdGggZD0iTTk1Ljg3LDIxNy41NCBDMTA5LjM3LDIyOC44OSAxMjUuMTEsMjQwLjU2IDE0MSwyNDkgQzE2MC43NywyNTkuNDkgMTc3LjkxNDcsMjY1Ljk1ODQgMTk5LjExNDcsMjcyLjA2ODQgIiBmaWxsPSJub25lIiBpZD0iQWRtaW4tdG8tVUM0IiBzdHlsZT0ic3Ryb2tlOiMxODE4MTg7c3Ryb2tlLXdpZHRoOjEuMDsiLz48cG9seWdvbiBmaWxsPSIjMTgxODE4IiBwb2ludHM9IjIwNC44OCwyNzMuNzMsMTk3LjMzOTcsMjY3LjM5NCwyMDAuMDc1NiwyNzIuMzQ1MywxOTUuMTI0MywyNzUuMDgxMSwyMDQuODgsMjczLjczIiBzdHlsZT0ic3Ryb2tlOiMxODE4MTg7c3Ryb2tlLXdpZHRoOjEuMDsiLz48L2c+PCEtLWxpbmsgQWRtaW4gdG8gVUM1LS0+PGcgaWQ9ImxpbmtfQWRtaW5fVUM1Ij48cGF0aCBkPSJNOTMuNTMsMTQyLjIzIEMxMDcuNDcsMTI5LjY1IDEyNC4wNywxMTYuNDQgMTQxLDEwNyBDMTU4LjkzLDk3IDE3My44NDkxLDkwLjgzODcgMTkzLjQ1OTEsODQuNjM4NyAiIGZpbGw9Im5vbmUiIGlkPSJBZG1pbi10by1VQzUiIHN0eWxlPSJzdHJva2U6IzE4MTgxODtzdHJva2Utd2lkdGg6MS4wOyIvPjxwb2x5Z29uIGZpbGw9IiMxODE4MTgiIHBvaW50cz0iMTk5LjE4LDgyLjgzLDE4OS4zOTI5LDgxLjcyOTIsMTk0LjQxMjYsODQuMzM3MywxOTEuODA0NSw4OS4zNTcsMTk5LjE4LDgyLjgzIiBzdHlsZT0ic3Ryb2tlOiMxODE4MTg7c3Ryb2tlLXdpZHRoOjEuMDsiLz48L2c+PCEtLWxpbmsgRW1wbG95ZSB0byBVQzMtLT48ZyBpZD0ibGlua19FbXBsb3llX1VDMyI+PHBhdGggZD0iTTgwLjY2LDM3MCBDMTAyLjA2LDM3MCAxMjguODcsMzcwIDE2MS40NCwzNzAgIiBmaWxsPSJub25lIiBpZD0iRW1wbG95ZS10by1VQzMiIHN0eWxlPSJzdHJva2U6IzE4MTgxODtzdHJva2Utd2lkdGg6MS4wOyIvPjxwb2x5Z29uIGZpbGw9IiMxODE4MTgiIHBvaW50cz0iMTY3LjQ0LDM3MCwxNTguNDQsMzY2LDE2Mi40NCwzNzAsMTU4LjQ0LDM3NCwxNjcuNDQsMzcwIiBzdHlsZT0ic3Ryb2tlOiMxODE4MTg7c3Ryb2tlLXdpZHRoOjEuMDsiLz48L2c+PCEtLVNSQz1bTlQxRFJpOG00ME5XbEt5bm9lZWtNOUlWUlFLZ0hNb1hnMFVtZDI1T1NpUGVGNDUyNVZTWHZfMzV3V0g3WEV4eXg0eXBvTkR1NTEwRlJFa0pHNktQWkxYRkljYVpkZzd1aDFmQkRXWGhtUE9CcTA2NmdfNXpxdm9UbHlQa1U3YTRMQWdWZWdiczJDTlg2WUpVNnVHQU9Pa1g3dndFZXVyVEFFMU4wUkcxWkd4OVJzRjdvRTBJbUlUOW10X0F6dC1FN2RKXzNRTWxDQUY1NTFzQzlkZUljRXN5OVQ0cmxjTXpkRWhJS3NZVHZFcmRKZmtIMzh4aExyRng1UmpaQWVSWHY1Y2RyYUJfVndjYll4T2steE13QUpNSzFWRnZuXzN6cXhIdUlRa05qNVF2b2ZvTlZtMDBdLS0+PC9nPjwvc3ZnPg==;rotation=0;" vertex="1" parent="1">
            <mxGeometry x="-526" y="80" width="525.69" height="536" as="geometry" />
          </mxCell>
        </UserObject>
        <UserObject label="" plantUmlData="{&#xa;  &quot;data&quot;: &quot;@startuml\nparticipant \&quot;Employé\&quot; as Employe\nparticipant \&quot;Scanner QR\&quot; as Scanner\nparticipant \&quot;Système\&quot; as Systeme\ndatabase \&quot;Base de Données\&quot; as DB\n\nEmploye -&gt; Scanner : Scanner QR Code\nScanner -&gt; Systeme : Envoyer QR Code\nSysteme -&gt; DB : Vérifier QR Code\nDB --&gt; Systeme : QR Code valide\nSysteme -&gt; DB : Enregistrer pointage (entrée/sortie)\nDB --&gt; Systeme : Confirmation\nSysteme --&gt; Employe : Afficher confirmation\n@enduml\n&quot;,&#xa;  &quot;format&quot;: &quot;svg&quot;&#xa;}" id="HkCyfT_QK6sZlhxP-qTj-6">
          <mxCell style="shape=image;noLabel=1;verticalAlign=top;aspect=fixed;imageAspect=0;image=data:image/svg+xml,PD94bWwgdmVyc2lvbj0iMS4wIiBlbmNvZGluZz0idXMtYXNjaWkiIHN0YW5kYWxvbmU9Im5vIj8+PHN2ZyB4bWxucz0iaHR0cDovL3d3dy53My5vcmcvMjAwMC9zdmciIHhtbG5zOnhsaW5rPSJodHRwOi8vd3d3LnczLm9yZy8xOTk5L3hsaW5rIiBjb250ZW50U3R5bGVUeXBlPSJ0ZXh0L2NzcyIgaGVpZ2h0PSIzNThweCIgcHJlc2VydmVBc3BlY3RSYXRpbz0ibm9uZSIgc3R5bGU9IndpZHRoOjYxOHB4O2hlaWdodDozNThweDtiYWNrZ3JvdW5kOiNGRkZGRkY7IiB2ZXJzaW9uPSIxLjEiIHZpZXdCb3g9IjAgMCA2MTggMzU4IiB3aWR0aD0iNjE4cHgiIHpvb21BbmRQYW49Im1hZ25pZnkiPjxkZWZzLz48Zz48bGluZSBzdHlsZT0ic3Ryb2tlOiMxODE4MTg7c3Ryb2tlLXdpZHRoOjAuNTtzdHJva2UtZGFzaGFycmF5OjUuMCw1LjA7IiB4MT0iMzciIHgyPSIzNyIgeTE9IjY1Ljk4NDQiIHkyPSIyODEuMzgyOCIvPjxsaW5lIHN0eWxlPSJzdHJva2U6IzE4MTgxODtzdHJva2Utd2lkdGg6MC41O3N0cm9rZS1kYXNoYXJyYXk6NS4wLDUuMDsiIHgxPSIxNjYiIHgyPSIxNjYiIHkxPSI2NS45ODQ0IiB5Mj0iMjgxLjM4MjgiLz48bGluZSBzdHlsZT0ic3Ryb2tlOiMxODE4MTg7c3Ryb2tlLXdpZHRoOjAuNTtzdHJva2UtZGFzaGFycmF5OjUuMCw1LjA7IiB4MT0iMjk1IiB4Mj0iMjk1IiB5MT0iNjUuOTg0NCIgeTI9IjI4MS4zODI4Ii8+PGxpbmUgc3R5bGU9InN0cm9rZTojMTgxODE4O3N0cm9rZS13aWR0aDowLjU7c3Ryb2tlLWRhc2hhcnJheTo1LjAsNS4wOyIgeDE9IjU2MS41IiB4Mj0iNTYxLjUiIHkxPSI2NS45ODQ0IiB5Mj0iMjgxLjM4MjgiLz48cmVjdCBmaWxsPSIjRTJFMkYwIiBoZWlnaHQ9IjI4Ljk4NDQiIHJ4PSIyLjUiIHJ5PSIyLjUiIHN0eWxlPSJzdHJva2U6IzE4MTgxODtzdHJva2Utd2lkdGg6MC41OyIgd2lkdGg9IjY0IiB4PSI1IiB5PSIzNiIvPjx0ZXh0IGZpbGw9IiMwMDAwMDAiIGZvbnQtZmFtaWx5PSJzYW5zLXNlcmlmIiBmb250LXNpemU9IjE0IiBsZW5ndGhBZGp1c3Q9InNwYWNpbmciIHRleHRMZW5ndGg9IjUwIiB4PSIxMiIgeT0iNTYuMjM0NCI+RW1wbG95JiMyMzM7PC90ZXh0PjxyZWN0IGZpbGw9IiNFMkUyRjAiIGhlaWdodD0iMjguOTg0NCIgcng9IjIuNSIgcnk9IjIuNSIgc3R5bGU9InN0cm9rZTojMTgxODE4O3N0cm9rZS13aWR0aDowLjU7IiB3aWR0aD0iNjQiIHg9IjUiIHk9IjI4MC4zODI4Ii8+PHRleHQgZmlsbD0iIzAwMDAwMCIgZm9udC1mYW1pbHk9InNhbnMtc2VyaWYiIGZvbnQtc2l6ZT0iMTQiIGxlbmd0aEFkanVzdD0ic3BhY2luZyIgdGV4dExlbmd0aD0iNTAiIHg9IjEyIiB5PSIzMDAuNjE3MiI+RW1wbG95JiMyMzM7PC90ZXh0PjxyZWN0IGZpbGw9IiNFMkUyRjAiIGhlaWdodD0iMjguOTg0NCIgcng9IjIuNSIgcnk9IjIuNSIgc3R5bGU9InN0cm9rZTojMTgxODE4O3N0cm9rZS13aWR0aDowLjU7IiB3aWR0aD0iODQiIHg9IjEyNCIgeT0iMzYiLz48dGV4dCBmaWxsPSIjMDAwMDAwIiBmb250LWZhbWlseT0ic2Fucy1zZXJpZiIgZm9udC1zaXplPSIxNCIgbGVuZ3RoQWRqdXN0PSJzcGFjaW5nIiB0ZXh0TGVuZ3RoPSI3MCIgeD0iMTMxIiB5PSI1Ni4yMzQ0Ij5TY2FubmVyIFFSPC90ZXh0PjxyZWN0IGZpbGw9IiNFMkUyRjAiIGhlaWdodD0iMjguOTg0NCIgcng9IjIuNSIgcnk9IjIuNSIgc3R5bGU9InN0cm9rZTojMTgxODE4O3N0cm9rZS13aWR0aDowLjU7IiB3aWR0aD0iODQiIHg9IjEyNCIgeT0iMjgwLjM4MjgiLz48dGV4dCBmaWxsPSIjMDAwMDAwIiBmb250LWZhbWlseT0ic2Fucy1zZXJpZiIgZm9udC1zaXplPSIxNCIgbGVuZ3RoQWRqdXN0PSJzcGFjaW5nIiB0ZXh0TGVuZ3RoPSI3MCIgeD0iMTMxIiB5PSIzMDAuNjE3MiI+U2Nhbm5lciBRUjwvdGV4dD48cmVjdCBmaWxsPSIjRTJFMkYwIiBoZWlnaHQ9IjI4Ljk4NDQiIHJ4PSIyLjUiIHJ5PSIyLjUiIHN0eWxlPSJzdHJva2U6IzE4MTgxODtzdHJva2Utd2lkdGg6MC41OyIgd2lkdGg9IjY0IiB4PSIyNjMiIHk9IjM2Ii8+PHRleHQgZmlsbD0iIzAwMDAwMCIgZm9udC1mYW1pbHk9InNhbnMtc2VyaWYiIGZvbnQtc2l6ZT0iMTQiIGxlbmd0aEFkanVzdD0ic3BhY2luZyIgdGV4dExlbmd0aD0iNTAiIHg9IjI3MCIgeT0iNTYuMjM0NCI+U3lzdCYjMjMyO21lPC90ZXh0PjxyZWN0IGZpbGw9IiNFMkUyRjAiIGhlaWdodD0iMjguOTg0NCIgcng9IjIuNSIgcnk9IjIuNSIgc3R5bGU9InN0cm9rZTojMTgxODE4O3N0cm9rZS13aWR0aDowLjU7IiB3aWR0aD0iNjQiIHg9IjI2MyIgeT0iMjgwLjM4MjgiLz48dGV4dCBmaWxsPSIjMDAwMDAwIiBmb250LWZhbWlseT0ic2Fucy1zZXJpZiIgZm9udC1zaXplPSIxNCIgbGVuZ3RoQWRqdXN0PSJzcGFjaW5nIiB0ZXh0TGVuZ3RoPSI1MCIgeD0iMjcwIiB5PSIzMDAuNjE3MiI+U3lzdCYjMjMyO21lPC90ZXh0Pjx0ZXh0IGZpbGw9IiMwMDAwMDAiIGZvbnQtZmFtaWx5PSJzYW5zLXNlcmlmIiBmb250LXNpemU9IjE0IiBsZW5ndGhBZGp1c3Q9InNwYWNpbmciIHRleHRMZW5ndGg9IjEwNSIgeD0iNTA2LjUiIHk9IjY0LjIzNDQiPkJhc2UgZGUgRG9ubiYjMjMzO2VzPC90ZXh0PjxwYXRoIGQ9Ik01NDQsMTUgQzU0NCw1IDU2Miw1IDU2Miw1IEM1NjIsNSA1ODAsNSA1ODAsMTUgTDU4MCw0MSBDNTgwLDUxIDU2Miw1MSA1NjIsNTEgQzU2Miw1MSA1NDQsNTEgNTQ0LDQxIEw1NDQsMTUgIiBmaWxsPSIjRTJFMkYwIiBzdHlsZT0ic3Ryb2tlOiMxODE4MTg7c3Ryb2tlLXdpZHRoOjEuNTsiLz48cGF0aCBkPSJNNTQ0LDE1IEM1NDQsMjUgNTYyLDI1IDU2MiwyNSBDNTYyLDI1IDU4MCwyNSA1ODAsMTUgIiBmaWxsPSJub25lIiBzdHlsZT0ic3Ryb2tlOiMxODE4MTg7c3Ryb2tlLXdpZHRoOjEuNTsiLz48dGV4dCBmaWxsPSIjMDAwMDAwIiBmb250LWZhbWlseT0ic2Fucy1zZXJpZiIgZm9udC1zaXplPSIxNCIgbGVuZ3RoQWRqdXN0PSJzcGFjaW5nIiB0ZXh0TGVuZ3RoPSIxMDUiIHg9IjUwNi41IiB5PSIyOTMuNjE3MiI+QmFzZSBkZSBEb25uJiMyMzM7ZXM8L3RleHQ+PHBhdGggZD0iTTU0NCwzMDUuMzY3MiBDNTQ0LDI5NS4zNjcyIDU2MiwyOTUuMzY3MiA1NjIsMjk1LjM2NzIgQzU2MiwyOTUuMzY3MiA1ODAsMjk1LjM2NzIgNTgwLDMwNS4zNjcyIEw1ODAsMzMxLjM2NzIgQzU4MCwzNDEuMzY3MiA1NjIsMzQxLjM2NzIgNTYyLDM0MS4zNjcyIEM1NjIsMzQxLjM2NzIgNTQ0LDM0MS4zNjcyIDU0NCwzMzEuMzY3MiBMNTQ0LDMwNS4zNjcyICIgZmlsbD0iI0UyRTJGMCIgc3R5bGU9InN0cm9rZTojMTgxODE4O3N0cm9rZS13aWR0aDoxLjU7Ii8+PHBhdGggZD0iTTU0NCwzMDUuMzY3MiBDNTQ0LDMxNS4zNjcyIDU2MiwzMTUuMzY3MiA1NjIsMzE1LjM2NzIgQzU2MiwzMTUuMzY3MiA1ODAsMzE1LjM2NzIgNTgwLDMwNS4zNjcyICIgZmlsbD0ibm9uZSIgc3R5bGU9InN0cm9rZTojMTgxODE4O3N0cm9rZS13aWR0aDoxLjU7Ii8+PHBvbHlnb24gZmlsbD0iIzE4MTgxOCIgcG9pbnRzPSIxNTQsOTEuODk4NCwxNjQsOTUuODk4NCwxNTQsOTkuODk4NCwxNTgsOTUuODk4NCIgc3R5bGU9InN0cm9rZTojMTgxODE4O3N0cm9rZS13aWR0aDoxLjA7Ii8+PGxpbmUgc3R5bGU9InN0cm9rZTojMTgxODE4O3N0cm9rZS13aWR0aDoxLjA7IiB4MT0iMzciIHgyPSIxNjAiIHkxPSI5NS44OTg0IiB5Mj0iOTUuODk4NCIvPjx0ZXh0IGZpbGw9IiMwMDAwMDAiIGZvbnQtZmFtaWx5PSJzYW5zLXNlcmlmIiBmb250LXNpemU9IjEzIiBsZW5ndGhBZGp1c3Q9InNwYWNpbmciIHRleHRMZW5ndGg9IjEwNSIgeD0iNDQiIHk9IjkyLjI3MzQiPlNjYW5uZXIgUVIgQ29kZTwvdGV4dD48cG9seWdvbiBmaWxsPSIjMTgxODE4IiBwb2ludHM9IjI4MywxMTkuODEyNSwyOTMsMTIzLjgxMjUsMjgzLDEyNy44MTI1LDI4NywxMjMuODEyNSIgc3R5bGU9InN0cm9rZTojMTgxODE4O3N0cm9rZS13aWR0aDoxLjA7Ii8+PGxpbmUgc3R5bGU9InN0cm9rZTojMTgxODE4O3N0cm9rZS13aWR0aDoxLjA7IiB4MT0iMTY2IiB4Mj0iMjg5IiB5MT0iMTIzLjgxMjUiIHkyPSIxMjMuODEyNSIvPjx0ZXh0IGZpbGw9IiMwMDAwMDAiIGZvbnQtZmFtaWx5PSJzYW5zLXNlcmlmIiBmb250LXNpemU9IjEzIiBsZW5ndGhBZGp1c3Q9InNwYWNpbmciIHRleHRMZW5ndGg9IjEwNSIgeD0iMTczIiB5PSIxMjAuMTg3NSI+RW52b3llciBRUiBDb2RlPC90ZXh0Pjxwb2x5Z29uIGZpbGw9IiMxODE4MTgiIHBvaW50cz0iNTUwLDE0Ny43MjY2LDU2MCwxNTEuNzI2Niw1NTAsMTU1LjcyNjYsNTU0LDE1MS43MjY2IiBzdHlsZT0ic3Ryb2tlOiMxODE4MTg7c3Ryb2tlLXdpZHRoOjEuMDsiLz48bGluZSBzdHlsZT0ic3Ryb2tlOiMxODE4MTg7c3Ryb2tlLXdpZHRoOjEuMDsiIHgxPSIyOTUiIHgyPSI1NTYiIHkxPSIxNTEuNzI2NiIgeTI9IjE1MS43MjY2Ii8+PHRleHQgZmlsbD0iIzAwMDAwMCIgZm9udC1mYW1pbHk9InNhbnMtc2VyaWYiIGZvbnQtc2l6ZT0iMTMiIGxlbmd0aEFkanVzdD0ic3BhY2luZyIgdGV4dExlbmd0aD0iMTA5IiB4PSIzMDIiIHk9IjE0OC4xMDE2Ij5WJiMyMzM7cmlmaWVyIFFSIENvZGU8L3RleHQ+PHBvbHlnb24gZmlsbD0iIzE4MTgxOCIgcG9pbnRzPSIzMDYsMTc1LjY0MDYsMjk2LDE3OS42NDA2LDMwNiwxODMuNjQwNiwzMDIsMTc5LjY0MDYiIHN0eWxlPSJzdHJva2U6IzE4MTgxODtzdHJva2Utd2lkdGg6MS4wOyIvPjxsaW5lIHN0eWxlPSJzdHJva2U6IzE4MTgxODtzdHJva2Utd2lkdGg6MS4wO3N0cm9rZS1kYXNoYXJyYXk6Mi4wLDIuMDsiIHgxPSIzMDAiIHgyPSI1NjEiIHkxPSIxNzkuNjQwNiIgeTI9IjE3OS42NDA2Ii8+PHRleHQgZmlsbD0iIzAwMDAwMCIgZm9udC1mYW1pbHk9InNhbnMtc2VyaWYiIGZvbnQtc2l6ZT0iMTMiIGxlbmd0aEFkanVzdD0ic3BhY2luZyIgdGV4dExlbmd0aD0iOTYiIHg9IjMxMiIgeT0iMTc2LjAxNTYiPlFSIENvZGUgdmFsaWRlPC90ZXh0Pjxwb2x5Z29uIGZpbGw9IiMxODE4MTgiIHBvaW50cz0iNTUwLDIwMy41NTQ3LDU2MCwyMDcuNTU0Nyw1NTAsMjExLjU1NDcsNTU0LDIwNy41NTQ3IiBzdHlsZT0ic3Ryb2tlOiMxODE4MTg7c3Ryb2tlLXdpZHRoOjEuMDsiLz48bGluZSBzdHlsZT0ic3Ryb2tlOiMxODE4MTg7c3Ryb2tlLXdpZHRoOjEuMDsiIHgxPSIyOTUiIHgyPSI1NTYiIHkxPSIyMDcuNTU0NyIgeTI9IjIwNy41NTQ3Ii8+PHRleHQgZmlsbD0iIzAwMDAwMCIgZm9udC1mYW1pbHk9InNhbnMtc2VyaWYiIGZvbnQtc2l6ZT0iMTMiIGxlbmd0aEFkanVzdD0ic3BhY2luZyIgdGV4dExlbmd0aD0iMjQzIiB4PSIzMDIiIHk9IjIwMy45Mjk3Ij5FbnJlZ2lzdHJlciBwb2ludGFnZSAoZW50ciYjMjMzO2Uvc29ydGllKTwvdGV4dD48cG9seWdvbiBmaWxsPSIjMTgxODE4IiBwb2ludHM9IjMwNiwyMzEuNDY4OCwyOTYsMjM1LjQ2ODgsMzA2LDIzOS40Njg4LDMwMiwyMzUuNDY4OCIgc3R5bGU9InN0cm9rZTojMTgxODE4O3N0cm9rZS13aWR0aDoxLjA7Ii8+PGxpbmUgc3R5bGU9InN0cm9rZTojMTgxODE4O3N0cm9rZS13aWR0aDoxLjA7c3Ryb2tlLWRhc2hhcnJheToyLjAsMi4wOyIgeDE9IjMwMCIgeDI9IjU2MSIgeTE9IjIzNS40Njg4IiB5Mj0iMjM1LjQ2ODgiLz48dGV4dCBmaWxsPSIjMDAwMDAwIiBmb250LWZhbWlseT0ic2Fucy1zZXJpZiIgZm9udC1zaXplPSIxMyIgbGVuZ3RoQWRqdXN0PSJzcGFjaW5nIiB0ZXh0TGVuZ3RoPSI3OSIgeD0iMzEyIiB5PSIyMzEuODQzOCI+Q29uZmlybWF0aW9uPC90ZXh0Pjxwb2x5Z29uIGZpbGw9IiMxODE4MTgiIHBvaW50cz0iNDgsMjU5LjM4MjgsMzgsMjYzLjM4MjgsNDgsMjY3LjM4MjgsNDQsMjYzLjM4MjgiIHN0eWxlPSJzdHJva2U6IzE4MTgxODtzdHJva2Utd2lkdGg6MS4wOyIvPjxsaW5lIHN0eWxlPSJzdHJva2U6IzE4MTgxODtzdHJva2Utd2lkdGg6MS4wO3N0cm9rZS1kYXNoYXJyYXk6Mi4wLDIuMDsiIHgxPSI0MiIgeDI9IjI5NCIgeTE9IjI2My4zODI4IiB5Mj0iMjYzLjM4MjgiLz48dGV4dCBmaWxsPSIjMDAwMDAwIiBmb250LWZhbWlseT0ic2Fucy1zZXJpZiIgZm9udC1zaXplPSIxMyIgbGVuZ3RoQWRqdXN0PSJzcGFjaW5nIiB0ZXh0TGVuZ3RoPSIxMzkiIHg9IjU0IiB5PSIyNTkuNzU3OCI+QWZmaWNoZXIgY29uZmlybWF0aW9uPC90ZXh0PjwhLS1TUkM9W1JPekQyaTkwMzRSdFN1aEdiSXg0VkhVMmpKczAya3ZaY3NoMFBlUVBHVjE2elhvemNENnNNN3lzMHpfYXZPTkZlT3pTaWFFOWExSURrelhScm9RMDBWZjBuYXM5Vk9hWXY2NnhVcDUzXzY5azhOUnRYZGYyMHBMYUFlbnVuNDJHUEMtdDhpWWpJRFRJVTY1dlBpbm00MVFocUdpZmwwXzJuYlBhbmxvNFVoTDJYTG5yU0c4RDR1Tm9KRVU3aGxMU3l1Skd4eU03T1haMDVJX3lucjI4Zm5FN3dETlhCNGw0NHk2Qzk3Z2ppMG5Nd3pGeXJ4Z25LaERsQ0JBTGpyRUhpTWlBd3hoY3lncFFTaTgtMDAwMF0tLT48L2c+PC9zdmc+;" vertex="1" parent="1">
            <mxGeometry x="20" y="670" width="794.08" height="460" as="geometry" />
          </mxCell>
        </UserObject>
        <UserObject label="" plantUmlData="{&quot;data&quot;:&quot;@startuml\nentity \&quot;Employes\&quot; {\n  * id : int\n  * nom : string\n  * prenom : string\n  * email : string\n  * telephone : string\n  * poste : string\n  * qr_code : string\n  * date_creation : timestamp\n}\n\nentity \&quot;Pointage\&quot; {\n  * id : int\n  * employe_id : int\n  * qr_code : string\n  * heure_scan : timestamp\n  * type_scan : enum(&#39;entrée&#39;, &#39;sortie&#39;)\n}\n\nentity \&quot;HoraireTravail\&quot; {\n  * id : int\n  * employe_id : int\n  * jour_semaine : enum\n  * heure_debut : time\n  * heure_fin : time\n}\n\n&#39; Relations\nEmployes ||--o{ Pointage : \&quot;réalise\&quot;\nEmployes ||--o{ HoraireTravail : \&quot;suit\&quot;\n@enduml\n&quot;,&quot;format&quot;:&quot;svg&quot;}" id="HkCyfT_QK6sZlhxP-qTj-7">
          <mxCell style="shape=image;noLabel=1;verticalAlign=top;aspect=fixed;imageAspect=0;image=data:image/svg+xml,PD94bWwgdmVyc2lvbj0iMS4wIiBlbmNvZGluZz0idXMtYXNjaWkiIHN0YW5kYWxvbmU9Im5vIj8+PHN2ZyB4bWxucz0iaHR0cDovL3d3dy53My5vcmcvMjAwMC9zdmciIHhtbG5zOnhsaW5rPSJodHRwOi8vd3d3LnczLm9yZy8xOTk5L3hsaW5rIiBjb250ZW50U3R5bGVUeXBlPSJ0ZXh0L2NzcyIgaGVpZ2h0PSIzNzlweCIgcHJlc2VydmVBc3BlY3RSYXRpbz0ibm9uZSIgc3R5bGU9IndpZHRoOjQ5MXB4O2hlaWdodDozNzlweDtiYWNrZ3JvdW5kOiNGRkZGRkY7IiB2ZXJzaW9uPSIxLjEiIHZpZXdCb3g9IjAgMCA0OTEgMzc5IiB3aWR0aD0iNDkxcHgiIHpvb21BbmRQYW49Im1hZ25pZnkiPjxkZWZzLz48Zz48IS0tY2xhc3MgRW1wbG95ZXMtLT48ZyBpZD0iZWxlbV9FbXBsb3llcyI+PHJlY3QgY29kZUxpbmU9IjEiIGZpbGw9IiNGMUYxRjEiIGhlaWdodD0iMTY3Ljg3NSIgaWQ9IkVtcGxveWVzIiByeD0iMi41IiByeT0iMi41IiBzdHlsZT0ic3Ryb2tlOiMxODE4MTg7c3Ryb2tlLXdpZHRoOjAuNTsiIHdpZHRoPSIyMDMiIHg9IjE3NCIgeT0iNyIvPjxlbGxpcHNlIGN4PSIyNDIuNzUiIGN5PSIyMyIgZmlsbD0iI0FERDFCMiIgcng9IjExIiByeT0iMTEiIHN0eWxlPSJzdHJva2U6IzE4MTgxODtzdHJva2Utd2lkdGg6MS4wOyIvPjxwYXRoIGQ9Ik0yNDYuMzc1LDI5IEwyNDYuMzc1LDI3LjI1IEwyNDEuMDYyNSwyNy4yNSBRMjQxLjA2MjUsMjcuMjUgMjQxLjA2MjUsMjMuNjg3NSBMMjQ1LjMxMjUsMjMuNjg3NSBMMjQ1LjMxMjUsMjEuOTM3NSBMMjQxLjA2MjUsMjEuOTM3NSBMMjQxLjA2MjUsMTkuNDM3NSBMMjQ2LjM3NSwxOS40Mzc1IEwyNDYuMzc1LDE3LjY4NzUgTDIzOS4zMTI1LDE3LjY4NzUgUTIzOS4zMTI1LDE3LjY4NzUgMjM5LjMxMjUsMjkgTDI0Ni4zNzUsMjkgWiAiIGZpbGw9IiMwMDAwMDAiLz48dGV4dCBmaWxsPSIjMDAwMDAwIiBmb250LWZhbWlseT0ic2Fucy1zZXJpZiIgZm9udC1zaXplPSIxNCIgbGVuZ3RoQWRqdXN0PSJzcGFjaW5nIiB0ZXh0TGVuZ3RoPSI1NyIgeD0iMjYzLjI1IiB5PSIyOC43NDIyIj5FbXBsb3llczwvdGV4dD48bGluZSBzdHlsZT0ic3Ryb2tlOiMxODE4MTg7c3Ryb2tlLXdpZHRoOjAuNTsiIHgxPSIxNzUiIHgyPSIzNzYiIHkxPSIzOSIgeTI9IjM5Ii8+PGVsbGlwc2UgY3g9IjE4NSIgY3k9IjUxLjk5MjIiIGZpbGw9IiMwMDAwMDAiIHJ4PSIzIiByeT0iMyIgc3R5bGU9InN0cm9rZTojMDAwMDAwO3N0cm9rZS13aWR0aDoxLjA7Ii8+PHRleHQgZmlsbD0iIzAwMDAwMCIgZm9udC1mYW1pbHk9InNhbnMtc2VyaWYiIGZvbnQtc2l6ZT0iMTQiIGxlbmd0aEFkanVzdD0ic3BhY2luZyIgdGV4dExlbmd0aD0iNTYiIHg9IjE5NCIgeT0iNTYuMjM0NCI+aWQgOiBpbnQ8L3RleHQ+PGVsbGlwc2UgY3g9IjE4NSIgY3k9IjY2Ljk3NjYiIGZpbGw9IiMwMDAwMDAiIHJ4PSIzIiByeT0iMyIgc3R5bGU9InN0cm9rZTojMDAwMDAwO3N0cm9rZS13aWR0aDoxLjA7Ii8+PHRleHQgZmlsbD0iIzAwMDAwMCIgZm9udC1mYW1pbHk9InNhbnMtc2VyaWYiIGZvbnQtc2l6ZT0iMTQiIGxlbmd0aEFkanVzdD0ic3BhY2luZyIgdGV4dExlbmd0aD0iODUiIHg9IjE5NCIgeT0iNzEuMjE4OCI+bm9tIDogc3RyaW5nPC90ZXh0PjxlbGxpcHNlIGN4PSIxODUiIGN5PSI4MS45NjA5IiBmaWxsPSIjMDAwMDAwIiByeD0iMyIgcnk9IjMiIHN0eWxlPSJzdHJva2U6IzAwMDAwMDtzdHJva2Utd2lkdGg6MS4wOyIvPjx0ZXh0IGZpbGw9IiMwMDAwMDAiIGZvbnQtZmFtaWx5PSJzYW5zLXNlcmlmIiBmb250LXNpemU9IjE0IiBsZW5ndGhBZGp1c3Q9InNwYWNpbmciIHRleHRMZW5ndGg9IjEwNiIgeD0iMTk0IiB5PSI4Ni4yMDMxIj5wcmVub20gOiBzdHJpbmc8L3RleHQ+PGVsbGlwc2UgY3g9IjE4NSIgY3k9Ijk2Ljk0NTMiIGZpbGw9IiMwMDAwMDAiIHJ4PSIzIiByeT0iMyIgc3R5bGU9InN0cm9rZTojMDAwMDAwO3N0cm9rZS13aWR0aDoxLjA7Ii8+PHRleHQgZmlsbD0iIzAwMDAwMCIgZm9udC1mYW1pbHk9InNhbnMtc2VyaWYiIGZvbnQtc2l6ZT0iMTQiIGxlbmd0aEFkanVzdD0ic3BhY2luZyIgdGV4dExlbmd0aD0iOTkiIHg9IjE5NCIgeT0iMTAxLjE4NzUiPmVtYWlsIDogc3RyaW5nPC90ZXh0PjxlbGxpcHNlIGN4PSIxODUiIGN5PSIxMTEuOTI5NyIgZmlsbD0iIzAwMDAwMCIgcng9IjMiIHJ5PSIzIiBzdHlsZT0ic3Ryb2tlOiMwMDAwMDA7c3Ryb2tlLXdpZHRoOjEuMDsiLz48dGV4dCBmaWxsPSIjMDAwMDAwIiBmb250LWZhbWlseT0ic2Fucy1zZXJpZiIgZm9udC1zaXplPSIxNCIgbGVuZ3RoQWRqdXN0PSJzcGFjaW5nIiB0ZXh0TGVuZ3RoPSIxMjYiIHg9IjE5NCIgeT0iMTE2LjE3MTkiPnRlbGVwaG9uZSA6IHN0cmluZzwvdGV4dD48ZWxsaXBzZSBjeD0iMTg1IiBjeT0iMTI2LjkxNDEiIGZpbGw9IiMwMDAwMDAiIHJ4PSIzIiByeT0iMyIgc3R5bGU9InN0cm9rZTojMDAwMDAwO3N0cm9rZS13aWR0aDoxLjA7Ii8+PHRleHQgZmlsbD0iIzAwMDAwMCIgZm9udC1mYW1pbHk9InNhbnMtc2VyaWYiIGZvbnQtc2l6ZT0iMTQiIGxlbmd0aEFkanVzdD0ic3BhY2luZyIgdGV4dExlbmd0aD0iOTgiIHg9IjE5NCIgeT0iMTMxLjE1NjMiPnBvc3RlIDogc3RyaW5nPC90ZXh0PjxlbGxpcHNlIGN4PSIxODUiIGN5PSIxNDEuODk4NCIgZmlsbD0iIzAwMDAwMCIgcng9IjMiIHJ5PSIzIiBzdHlsZT0ic3Ryb2tlOiMwMDAwMDA7c3Ryb2tlLXdpZHRoOjEuMDsiLz48dGV4dCBmaWxsPSIjMDAwMDAwIiBmb250LWZhbWlseT0ic2Fucy1zZXJpZiIgZm9udC1zaXplPSIxNCIgbGVuZ3RoQWRqdXN0PSJzcGFjaW5nIiB0ZXh0TGVuZ3RoPSIxMTIiIHg9IjE5NCIgeT0iMTQ2LjE0MDYiPnFyX2NvZGUgOiBzdHJpbmc8L3RleHQ+PGVsbGlwc2UgY3g9IjE4NSIgY3k9IjE1Ni44ODI4IiBmaWxsPSIjMDAwMDAwIiByeD0iMyIgcnk9IjMiIHN0eWxlPSJzdHJva2U6IzAwMDAwMDtzdHJva2Utd2lkdGg6MS4wOyIvPjx0ZXh0IGZpbGw9IiMwMDAwMDAiIGZvbnQtZmFtaWx5PSJzYW5zLXNlcmlmIiBmb250LXNpemU9IjE0IiBsZW5ndGhBZGp1c3Q9InNwYWNpbmciIHRleHRMZW5ndGg9IjE3NyIgeD0iMTk0IiB5PSIxNjEuMTI1Ij5kYXRlX2NyZWF0aW9uIDogdGltZXN0YW1wPC90ZXh0PjxsaW5lIHN0eWxlPSJzdHJva2U6IzE4MTgxODtzdHJva2Utd2lkdGg6MC41OyIgeDE9IjE3NSIgeDI9IjM3NiIgeTE9IjE2Ni44NzUiIHkyPSIxNjYuODc1Ii8+PC9nPjwhLS1jbGFzcyBQb2ludGFnZS0tPjxnIGlkPSJlbGVtX1BvaW50YWdlIj48cmVjdCBjb2RlTGluZT0iMTIiIGZpbGw9IiNGMUYxRjEiIGhlaWdodD0iMTIyLjkyMTkiIGlkPSJQb2ludGFnZSIgcng9IjIuNSIgcnk9IjIuNSIgc3R5bGU9InN0cm9rZTojMTgxODE4O3N0cm9rZS13aWR0aDowLjU7IiB3aWR0aD0iMjgxIiB4PSI3IiB5PSIyNTAiLz48ZWxsaXBzZSBjeD0iMTE1LjI1IiBjeT0iMjY2IiBmaWxsPSIjQUREMUIyIiByeD0iMTEiIHJ5PSIxMSIgc3R5bGU9InN0cm9rZTojMTgxODE4O3N0cm9rZS13aWR0aDoxLjA7Ii8+PHBhdGggZD0iTTExOC44NzUsMjcyIEwxMTguODc1LDI3MC4yNSBMMTEzLjU2MjUsMjcwLjI1IFExMTMuNTYyNSwyNzAuMjUgMTEzLjU2MjUsMjY2LjY4NzUgTDExNy44MTI1LDI2Ni42ODc1IEwxMTcuODEyNSwyNjQuOTM3NSBMMTEzLjU2MjUsMjY0LjkzNzUgTDExMy41NjI1LDI2Mi40Mzc1IEwxMTguODc1LDI2Mi40Mzc1IEwxMTguODc1LDI2MC42ODc1IEwxMTEuODEyNSwyNjAuNjg3NSBRMTExLjgxMjUsMjYwLjY4NzUgMTExLjgxMjUsMjcyIEwxMTguODc1LDI3MiBaICIgZmlsbD0iIzAwMDAwMCIvPjx0ZXh0IGZpbGw9IiMwMDAwMDAiIGZvbnQtZmFtaWx5PSJzYW5zLXNlcmlmIiBmb250LXNpemU9IjE0IiBsZW5ndGhBZGp1c3Q9InNwYWNpbmciIHRleHRMZW5ndGg9IjU2IiB4PSIxMzUuNzUiIHk9IjI3MS43NDIyIj5Qb2ludGFnZTwvdGV4dD48bGluZSBzdHlsZT0ic3Ryb2tlOiMxODE4MTg7c3Ryb2tlLXdpZHRoOjAuNTsiIHgxPSI4IiB4Mj0iMjg3IiB5MT0iMjgyIiB5Mj0iMjgyIi8+PGVsbGlwc2UgY3g9IjE4IiBjeT0iMjk0Ljk5MjIiIGZpbGw9IiMwMDAwMDAiIHJ4PSIzIiByeT0iMyIgc3R5bGU9InN0cm9rZTojMDAwMDAwO3N0cm9rZS13aWR0aDoxLjA7Ii8+PHRleHQgZmlsbD0iIzAwMDAwMCIgZm9udC1mYW1pbHk9InNhbnMtc2VyaWYiIGZvbnQtc2l6ZT0iMTQiIGxlbmd0aEFkanVzdD0ic3BhY2luZyIgdGV4dExlbmd0aD0iNTYiIHg9IjI3IiB5PSIyOTkuMjM0NCI+aWQgOiBpbnQ8L3RleHQ+PGVsbGlwc2UgY3g9IjE4IiBjeT0iMzA5Ljk3NjYiIGZpbGw9IiMwMDAwMDAiIHJ4PSIzIiByeT0iMyIgc3R5bGU9InN0cm9rZTojMDAwMDAwO3N0cm9rZS13aWR0aDoxLjA7Ii8+PHRleHQgZmlsbD0iIzAwMDAwMCIgZm9udC1mYW1pbHk9InNhbnMtc2VyaWYiIGZvbnQtc2l6ZT0iMTQiIGxlbmd0aEFkanVzdD0ic3BhY2luZyIgdGV4dExlbmd0aD0iMTEzIiB4PSIyNyIgeT0iMzE0LjIxODgiPmVtcGxveWVfaWQgOiBpbnQ8L3RleHQ+PGVsbGlwc2UgY3g9IjE4IiBjeT0iMzI0Ljk2MDkiIGZpbGw9IiMwMDAwMDAiIHJ4PSIzIiByeT0iMyIgc3R5bGU9InN0cm9rZTojMDAwMDAwO3N0cm9rZS13aWR0aDoxLjA7Ii8+PHRleHQgZmlsbD0iIzAwMDAwMCIgZm9udC1mYW1pbHk9InNhbnMtc2VyaWYiIGZvbnQtc2l6ZT0iMTQiIGxlbmd0aEFkanVzdD0ic3BhY2luZyIgdGV4dExlbmd0aD0iMTEyIiB4PSIyNyIgeT0iMzI5LjIwMzEiPnFyX2NvZGUgOiBzdHJpbmc8L3RleHQ+PGVsbGlwc2UgY3g9IjE4IiBjeT0iMzM5Ljk0NTMiIGZpbGw9IiMwMDAwMDAiIHJ4PSIzIiByeT0iMyIgc3R5bGU9InN0cm9rZTojMDAwMDAwO3N0cm9rZS13aWR0aDoxLjA7Ii8+PHRleHQgZmlsbD0iIzAwMDAwMCIgZm9udC1mYW1pbHk9InNhbnMtc2VyaWYiIGZvbnQtc2l6ZT0iMTQiIGxlbmd0aEFkanVzdD0ic3BhY2luZyIgdGV4dExlbmd0aD0iMTU2IiB4PSIyNyIgeT0iMzQ0LjE4NzUiPmhldXJlX3NjYW4gOiB0aW1lc3RhbXA8L3RleHQ+PGxpbmUgc3R5bGU9InN0cm9rZTojMTgxODE4O3N0cm9rZS13aWR0aDowLjU7IiB4MT0iOCIgeDI9IjI4NyIgeTE9IjM0OS45Mzc1IiB5Mj0iMzQ5LjkzNzUiLz48ZWxsaXBzZSBjeD0iMTgiIGN5PSIzNjIuOTI5NyIgZmlsbD0iIzAwMDAwMCIgcng9IjMiIHJ5PSIzIiBzdHlsZT0ic3Ryb2tlOiMwMDAwMDA7c3Ryb2tlLXdpZHRoOjEuMDsiLz48dGV4dCBmaWxsPSIjMDAwMDAwIiBmb250LWZhbWlseT0ic2Fucy1zZXJpZiIgZm9udC1zaXplPSIxNCIgbGVuZ3RoQWRqdXN0PSJzcGFjaW5nIiB0ZXh0TGVuZ3RoPSIyNTUiIHg9IjI3IiB5PSIzNjcuMTcxOSI+dHlwZV9zY2FuIDogZW51bSgnZW50ciYjMjMzO2UnLCAnc29ydGllJyk8L3RleHQ+PC9nPjwhLS1jbGFzcyBIb3JhaXJlVHJhdmFpbC0tPjxnIGlkPSJlbGVtX0hvcmFpcmVUcmF2YWlsIj48cmVjdCBjb2RlTGluZT0iMjAiIGZpbGw9IiNGMUYxRjEiIGhlaWdodD0iMTIyLjkyMTkiIGlkPSJIb3JhaXJlVHJhdmFpbCIgcng9IjIuNSIgcnk9IjIuNSIgc3R5bGU9InN0cm9rZTojMTgxODE4O3N0cm9rZS13aWR0aDowLjU7IiB3aWR0aD0iMTYxIiB4PSIzMjMiIHk9IjI1MCIvPjxlbGxpcHNlIGN4PSIzNTEuOTUiIGN5PSIyNjYiIGZpbGw9IiNBREQxQjIiIHJ4PSIxMSIgcnk9IjExIiBzdHlsZT0ic3Ryb2tlOiMxODE4MTg7c3Ryb2tlLXdpZHRoOjEuMDsiLz48cGF0aCBkPSJNMzU1LjU3NSwyNzIgTDM1NS41NzUsMjcwLjI1IEwzNTAuMjYyNSwyNzAuMjUgUTM1MC4yNjI1LDI3MC4yNSAzNTAuMjYyNSwyNjYuNjg3NSBMMzU0LjUxMjUsMjY2LjY4NzUgTDM1NC41MTI1LDI2NC45Mzc1IEwzNTAuMjYyNSwyNjQuOTM3NSBMMzUwLjI2MjUsMjYyLjQzNzUgTDM1NS41NzUsMjYyLjQzNzUgTDM1NS41NzUsMjYwLjY4NzUgTDM0OC41MTI1LDI2MC42ODc1IFEzNDguNTEyNSwyNjAuNjg3NSAzNDguNTEyNSwyNzIgTDM1NS41NzUsMjcyIFogIiBmaWxsPSIjMDAwMDAwIi8+PHRleHQgZmlsbD0iIzAwMDAwMCIgZm9udC1mYW1pbHk9InNhbnMtc2VyaWYiIGZvbnQtc2l6ZT0iMTQiIGxlbmd0aEFkanVzdD0ic3BhY2luZyIgdGV4dExlbmd0aD0iOTgiIHg9IjM2OS4wNSIgeT0iMjcxLjc0MjIiPkhvcmFpcmVUcmF2YWlsPC90ZXh0PjxsaW5lIHN0eWxlPSJzdHJva2U6IzE4MTgxODtzdHJva2Utd2lkdGg6MC41OyIgeDE9IjMyNCIgeDI9IjQ4MyIgeTE9IjI4MiIgeTI9IjI4MiIvPjxlbGxpcHNlIGN4PSIzMzQiIGN5PSIyOTQuOTkyMiIgZmlsbD0iIzAwMDAwMCIgcng9IjMiIHJ5PSIzIiBzdHlsZT0ic3Ryb2tlOiMwMDAwMDA7c3Ryb2tlLXdpZHRoOjEuMDsiLz48dGV4dCBmaWxsPSIjMDAwMDAwIiBmb250LWZhbWlseT0ic2Fucy1zZXJpZiIgZm9udC1zaXplPSIxNCIgbGVuZ3RoQWRqdXN0PSJzcGFjaW5nIiB0ZXh0TGVuZ3RoPSI1NiIgeD0iMzQzIiB5PSIyOTkuMjM0NCI+aWQgOiBpbnQ8L3RleHQ+PGVsbGlwc2UgY3g9IjMzNCIgY3k9IjMwOS45NzY2IiBmaWxsPSIjMDAwMDAwIiByeD0iMyIgcnk9IjMiIHN0eWxlPSJzdHJva2U6IzAwMDAwMDtzdHJva2Utd2lkdGg6MS4wOyIvPjx0ZXh0IGZpbGw9IiMwMDAwMDAiIGZvbnQtZmFtaWx5PSJzYW5zLXNlcmlmIiBmb250LXNpemU9IjE0IiBsZW5ndGhBZGp1c3Q9InNwYWNpbmciIHRleHRMZW5ndGg9IjExMyIgeD0iMzQzIiB5PSIzMTQuMjE4OCI+ZW1wbG95ZV9pZCA6IGludDwvdGV4dD48ZWxsaXBzZSBjeD0iMzM0IiBjeT0iMzI0Ljk2MDkiIGZpbGw9IiMwMDAwMDAiIHJ4PSIzIiByeT0iMyIgc3R5bGU9InN0cm9rZTojMDAwMDAwO3N0cm9rZS13aWR0aDoxLjA7Ii8+PHRleHQgZmlsbD0iIzAwMDAwMCIgZm9udC1mYW1pbHk9InNhbnMtc2VyaWYiIGZvbnQtc2l6ZT0iMTQiIGxlbmd0aEFkanVzdD0ic3BhY2luZyIgdGV4dExlbmd0aD0iMTM1IiB4PSIzNDMiIHk9IjMyOS4yMDMxIj5qb3VyX3NlbWFpbmUgOiBlbnVtPC90ZXh0PjxlbGxpcHNlIGN4PSIzMzQiIGN5PSIzMzkuOTQ1MyIgZmlsbD0iIzAwMDAwMCIgcng9IjMiIHJ5PSIzIiBzdHlsZT0ic3Ryb2tlOiMwMDAwMDA7c3Ryb2tlLXdpZHRoOjEuMDsiLz48dGV4dCBmaWxsPSIjMDAwMDAwIiBmb250LWZhbWlseT0ic2Fucy1zZXJpZiIgZm9udC1zaXplPSIxNCIgbGVuZ3RoQWRqdXN0PSJzcGFjaW5nIiB0ZXh0TGVuZ3RoPSIxMjciIHg9IjM0MyIgeT0iMzQ0LjE4NzUiPmhldXJlX2RlYnV0IDogdGltZTwvdGV4dD48ZWxsaXBzZSBjeD0iMzM0IiBjeT0iMzU0LjkyOTciIGZpbGw9IiMwMDAwMDAiIHJ4PSIzIiByeT0iMyIgc3R5bGU9InN0cm9rZTojMDAwMDAwO3N0cm9rZS13aWR0aDoxLjA7Ii8+PHRleHQgZmlsbD0iIzAwMDAwMCIgZm9udC1mYW1pbHk9InNhbnMtc2VyaWYiIGZvbnQtc2l6ZT0iMTQiIGxlbmd0aEFkanVzdD0ic3BhY2luZyIgdGV4dExlbmd0aD0iMTEzIiB4PSIzNDMiIHk9IjM1OS4xNzE5Ij5oZXVyZV9maW4gOiB0aW1lPC90ZXh0PjxsaW5lIHN0eWxlPSJzdHJva2U6IzE4MTgxODtzdHJva2Utd2lkdGg6MC41OyIgeDE9IjMyNCIgeDI9IjQ4MyIgeTE9IjM2NC45MjE5IiB5Mj0iMzY0LjkyMTkiLz48L2c+PCEtLWxpbmsgRW1wbG95ZXMgdG8gUG9pbnRhZ2UtLT48ZyBpZD0ibGlua19FbXBsb3llc19Qb2ludGFnZSI+PHBhdGggY29kZUxpbmU9IjI5IiBkPSJNMjIyLjY5NjYsMTgyLjEzMyBDMjA4LjE0NjYsMjA2Ljk3MyAyMDUuNjE3MywyMTEuMjg4MSAxOTIuMDg3MywyMzQuMzg4MSAiIGZpbGw9Im5vbmUiIGlkPSJFbXBsb3llcy1Qb2ludGFnZSIgc3R5bGU9InN0cm9rZTojMTgxODE4O3N0cm9rZS13aWR0aDoxLjA7Ii8+PGxpbmUgc3R5bGU9InN0cm9rZTojMTgxODE4O3N0cm9rZS13aWR0aDoxLjA7IiB4MT0iMjIxLjI2NjgiIHgyPSIyMjguMTY5OCIgeTE9IjE3Ni42NTk4IiB5Mj0iMTgwLjcwMzIiLz48bGluZSBzdHlsZT0ic3Ryb2tlOiMxODE4MTg7c3Ryb2tlLXdpZHRoOjEuMDsiIHgxPSIyMTkuNzUwNSIgeDI9IjIyNi42NTM1IiB5MT0iMTc5LjI0ODQiIHkyPSIxODMuMjkxOCIvPjxsaW5lIHN0eWxlPSJzdHJva2U6IzE4MTgxODtzdHJva2Utd2lkdGg6MS4wOyIgeDE9IjIyMi42OTY2IiB4Mj0iMjI2Ljc0IiB5MT0iMTgyLjEzMyIgeTI9IjE3NS4yMyIvPjxsaW5lIHN0eWxlPSJzdHJva2U6IzE4MTgxODtzdHJva2Utd2lkdGg6MS4wOyIgeDE9IjE4Ny4wMzMyIiB4Mj0iMTg4LjE2NzMiIHkxPSIyNDMuMDE2OSIgeTI9IjI1Mi45NTI0Ii8+PGxpbmUgc3R5bGU9InN0cm9rZTojMTgxODE4O3N0cm9rZS13aWR0aDoxLjA7IiB4MT0iMTg3LjAzMzIiIHgyPSIxNzcuODEyNyIgeTE9IjI0My4wMTY5IiB5Mj0iMjQ2Ljg4NzYiLz48bGluZSBzdHlsZT0ic3Ryb2tlOiMxODE4MTg7c3Ryb2tlLXdpZHRoOjEuMDsiIHgxPSIxODcuMDMzMiIgeDI9IjE4Mi45OSIgeTE9IjI0My4wMTY5IiB5Mj0iMjQ5LjkyIi8+PGVsbGlwc2UgY3g9IjE5MC4wNjU2IiBjeT0iMjM3LjgzOTYiIGZpbGw9Im5vbmUiIHJ4PSI0IiByeT0iNCIgc3R5bGU9InN0cm9rZTojMTgxODE4O3N0cm9rZS13aWR0aDoxLjA7Ii8+PHRleHQgZmlsbD0iIzAwMDAwMCIgZm9udC1mYW1pbHk9InNhbnMtc2VyaWYiIGZvbnQtc2l6ZT0iMTMiIGxlbmd0aEFkanVzdD0ic3BhY2luZyIgdGV4dExlbmd0aD0iNDciIHg9IjIwOS41IiB5PSIyMTguMjg5MSI+ciYjMjMzO2FsaXNlPC90ZXh0PjwvZz48IS0tbGluayBFbXBsb3llcyB0byBIb3JhaXJlVHJhdmFpbC0tPjxnIGlkPSJsaW5rX0VtcGxveWVzX0hvcmFpcmVUcmF2YWlsIj48cGF0aCBjb2RlTGluZT0iMzAiIGQ9Ik0zMjguMzAzNCwxODIuMTMzIEMzNDIuODUzNCwyMDYuOTczIDM0NS4zODI3LDIxMS4yODgxIDM1OC45MTI3LDIzNC4zODgxICIgZmlsbD0ibm9uZSIgaWQ9IkVtcGxveWVzLUhvcmFpcmVUcmF2YWlsIiBzdHlsZT0ic3Ryb2tlOiMxODE4MTg7c3Ryb2tlLXdpZHRoOjEuMDsiLz48bGluZSBzdHlsZT0ic3Ryb2tlOiMxODE4MTg7c3Ryb2tlLXdpZHRoOjEuMDsiIHgxPSIzMjIuODMwMiIgeDI9IjMyOS43MzMyIiB5MT0iMTgwLjcwMzIiIHkyPSIxNzYuNjU5OCIvPjxsaW5lIHN0eWxlPSJzdHJva2U6IzE4MTgxODtzdHJva2Utd2lkdGg6MS4wOyIgeDE9IjMyNC4zNDY1IiB4Mj0iMzMxLjI0OTUiIHkxPSIxODMuMjkxOCIgeTI9IjE3OS4yNDg0Ii8+PGxpbmUgc3R5bGU9InN0cm9rZTojMTgxODE4O3N0cm9rZS13aWR0aDoxLjA7IiB4MT0iMzI4LjMwMzQiIHgyPSIzMjQuMjYiIHkxPSIxODIuMTMzIiB5Mj0iMTc1LjIzIi8+PGxpbmUgc3R5bGU9InN0cm9rZTojMTgxODE4O3N0cm9rZS13aWR0aDoxLjA7IiB4MT0iMzYzLjk2NjgiIHgyPSIzNzMuMTg3MyIgeTE9IjI0My4wMTY5IiB5Mj0iMjQ2Ljg4NzYiLz48bGluZSBzdHlsZT0ic3Ryb2tlOiMxODE4MTg7c3Ryb2tlLXdpZHRoOjEuMDsiIHgxPSIzNjMuOTY2OCIgeDI9IjM2Mi44MzI3IiB5MT0iMjQzLjAxNjkiIHkyPSIyNTIuOTUyNCIvPjxsaW5lIHN0eWxlPSJzdHJva2U6IzE4MTgxODtzdHJva2Utd2lkdGg6MS4wOyIgeDE9IjM2My45NjY4IiB4Mj0iMzY4LjAxIiB5MT0iMjQzLjAxNjkiIHkyPSIyNDkuOTIiLz48ZWxsaXBzZSBjeD0iMzYwLjkzNDQiIGN5PSIyMzcuODM5NiIgZmlsbD0ibm9uZSIgcng9IjQiIHJ5PSI0IiBzdHlsZT0ic3Ryb2tlOiMxODE4MTg7c3Ryb2tlLXdpZHRoOjEuMDsiLz48dGV4dCBmaWxsPSIjMDAwMDAwIiBmb250LWZhbWlseT0ic2Fucy1zZXJpZiIgZm9udC1zaXplPSIxMyIgbGVuZ3RoQWRqdXN0PSJzcGFjaW5nIiB0ZXh0TGVuZ3RoPSIyNiIgeD0iMzQ3LjUiIHk9IjIxOC4yODkxIj5zdWl0PC90ZXh0PjwvZz48IS0tU1JDPVtaUDUxSmlEMDM0TnRFT01MSkczSDJ4MTdPZWFHLXNYOEZnckhQWG15M2JCS3phMHoxblRaNFhnS2Y1c216RlNWX1VTXzJDUk1LX3hlc3FQd245cHM2VDRUU0txRm5DNzY4T1hGS3BKYmkxczVMZDZYbUpqa2JmQVhHUmtKV0RMaFlSUUlGaE1pZjV3OWpKRUtiUzhQSXFXaE91emVwaFZQQ1NqbTFkLU1IRWNzazBnRXR3bEFYTldyUXVURUtTUkFCT0Y2QV9oc1J1RkctUGlZUFVsdDJTS3o1TDdLNkNOajdFYjlyQjdZTFRyTmdrSl9PMV9JUUhjNzdpVjZYZ21QTXVzdHBpdm1DX2NUOS04MWVRME5ENkRWQ1BrLWIwdzdwS1JzRDNNTHg3ZDJUbXI3djFVazlWcFdaSHJSX1dDMF0tLT48L2c+PC9zdmc+;" vertex="1" parent="1">
            <mxGeometry x="-540" y="760" width="491" height="379" as="geometry" />
          </mxCell>
        </UserObject>
        <UserObject label="" plantUmlData="{&#xa;  &quot;data&quot;: &quot;@startuml\nentity \&quot;Employes\&quot; {\n  + id : INT PK\n  + nom : VARCHAR(100)\n  + prenom : VARCHAR(100)\n  + email : VARCHAR(100)\n  + telephone : VARCHAR(20)\n  + poste : VARCHAR(50)\n  + qr_code : VARCHAR(255)\n  + date_creation : TIMESTAMP\n}\n\nentity \&quot;Pointage\&quot; {\n  + id : INT PK\n  + employe_id : INT FK\n  + qr_code : VARCHAR(255)\n  + heure_scan : TIMESTAMP\n  + type_scan : ENUM(&#39;entrée&#39;, &#39;sortie&#39;)\n}\n\nentity \&quot;HoraireTravail\&quot; {\n  + id : INT PK\n  + employe_id : INT FK\n  + jour_semaine : ENUM(&#39;lundi&#39;, &#39;mardi&#39;, &#39;mercredi&#39;, &#39;jeudi&#39;, &#39;vendredi&#39;, &#39;samedi&#39;, &#39;dimanche&#39;)\n  + heure_debut : TIME\n  + heure_fin : TIME\n}\n\n&#39; Relations\nEmployes ||--o{ Pointage : \&quot;réalise\&quot;\nEmployes ||--o{ HoraireTravail : \&quot;suit\&quot;\n@enduml\n&quot;,&#xa;  &quot;format&quot;: &quot;svg&quot;&#xa;}" id="HkCyfT_QK6sZlhxP-qTj-8">
          <mxCell style="shape=image;noLabel=1;verticalAlign=top;aspect=fixed;imageAspect=0;image=data:image/svg+xml,PD94bWwgdmVyc2lvbj0iMS4wIiBlbmNvZGluZz0idXMtYXNjaWkiIHN0YW5kYWxvbmU9Im5vIj8+PHN2ZyB4bWxucz0iaHR0cDovL3d3dy53My5vcmcvMjAwMC9zdmciIHhtbG5zOnhsaW5rPSJodHRwOi8vd3d3LnczLm9yZy8xOTk5L3hsaW5rIiBjb250ZW50U3R5bGVUeXBlPSJ0ZXh0L2NzcyIgaGVpZ2h0PSIzNzlweCIgcHJlc2VydmVBc3BlY3RSYXRpbz0ibm9uZSIgc3R5bGU9IndpZHRoOjEwMDZweDtoZWlnaHQ6Mzc5cHg7YmFja2dyb3VuZDojRkZGRkZGOyIgdmVyc2lvbj0iMS4xIiB2aWV3Qm94PSIwIDAgMTAwNiAzNzkiIHdpZHRoPSIxMDA2cHgiIHpvb21BbmRQYW49Im1hZ25pZnkiPjxkZWZzLz48Zz48IS0tY2xhc3MgRW1wbG95ZXMtLT48ZyBpZD0iZWxlbV9FbXBsb3llcyI+PHJlY3QgY29kZUxpbmU9IjEiIGZpbGw9IiNGMUYxRjEiIGhlaWdodD0iMTY3Ljg3NSIgaWQ9IkVtcGxveWVzIiByeD0iMi41IiByeT0iMi41IiBzdHlsZT0ic3Ryb2tlOiMxODE4MTg7c3Ryb2tlLXdpZHRoOjAuNTsiIHdpZHRoPSIyMDEiIHg9IjMwMy41IiB5PSI3Ii8+PGVsbGlwc2UgY3g9IjM3MS4yNSIgY3k9IjIzIiBmaWxsPSIjQUREMUIyIiByeD0iMTEiIHJ5PSIxMSIgc3R5bGU9InN0cm9rZTojMTgxODE4O3N0cm9rZS13aWR0aDoxLjA7Ii8+PHBhdGggZD0iTTM3NC44NzUsMjkgTDM3NC44NzUsMjcuMjUgTDM2OS41NjI1LDI3LjI1IFEzNjkuNTYyNSwyNy4yNSAzNjkuNTYyNSwyMy42ODc1IEwzNzMuODEyNSwyMy42ODc1IEwzNzMuODEyNSwyMS45Mzc1IEwzNjkuNTYyNSwyMS45Mzc1IEwzNjkuNTYyNSwxOS40Mzc1IEwzNzQuODc1LDE5LjQzNzUgTDM3NC44NzUsMTcuNjg3NSBMMzY3LjgxMjUsMTcuNjg3NSBRMzY3LjgxMjUsMTcuNjg3NSAzNjcuODEyNSwyOSBMMzc0Ljg3NSwyOSBaICIgZmlsbD0iIzAwMDAwMCIvPjx0ZXh0IGZpbGw9IiMwMDAwMDAiIGZvbnQtZmFtaWx5PSJzYW5zLXNlcmlmIiBmb250LXNpemU9IjE0IiBsZW5ndGhBZGp1c3Q9InNwYWNpbmciIHRleHRMZW5ndGg9IjU3IiB4PSIzOTEuNzUiIHk9IjI4Ljc0MjIiPkVtcGxveWVzPC90ZXh0PjxsaW5lIHN0eWxlPSJzdHJva2U6IzE4MTgxODtzdHJva2Utd2lkdGg6MC41OyIgeDE9IjMwNC41IiB4Mj0iNTAzLjUiIHkxPSIzOSIgeTI9IjM5Ii8+PGVsbGlwc2UgY3g9IjMxNC41IiBjeT0iNTEuOTkyMiIgZmlsbD0ibm9uZSIgcng9IjMiIHJ5PSIzIiBzdHlsZT0ic3Ryb2tlOiMwMzgwNDg7c3Ryb2tlLXdpZHRoOjEuMDsiLz48dGV4dCBmaWxsPSIjMDAwMDAwIiBmb250LWZhbWlseT0ic2Fucy1zZXJpZiIgZm9udC1zaXplPSIxNCIgbGVuZ3RoQWRqdXN0PSJzcGFjaW5nIiB0ZXh0TGVuZ3RoPSI3NyIgeD0iMzIzLjUiIHk9IjU2LjIzNDQiPmlkIDogSU5UIFBLPC90ZXh0PjxlbGxpcHNlIGN4PSIzMTQuNSIgY3k9IjY2Ljk3NjYiIGZpbGw9Im5vbmUiIHJ4PSIzIiByeT0iMyIgc3R5bGU9InN0cm9rZTojMDM4MDQ4O3N0cm9rZS13aWR0aDoxLjA7Ii8+PHRleHQgZmlsbD0iIzAwMDAwMCIgZm9udC1mYW1pbHk9InNhbnMtc2VyaWYiIGZvbnQtc2l6ZT0iMTQiIGxlbmd0aEFkanVzdD0ic3BhY2luZyIgdGV4dExlbmd0aD0iMTc1IiB4PSIzMjMuNSIgeT0iNzEuMjE4OCI+ZGF0ZV9jcmVhdGlvbiA6IFRJTUVTVEFNUDwvdGV4dD48bGluZSBzdHlsZT0ic3Ryb2tlOiMxODE4MTg7c3Ryb2tlLXdpZHRoOjAuNTsiIHgxPSIzMDQuNSIgeDI9IjUwMy41IiB5MT0iNzYuOTY4OCIgeTI9Ijc2Ljk2ODgiLz48ZWxsaXBzZSBjeD0iMzE0LjUiIGN5PSI4OS45NjA5IiBmaWxsPSIjODRCRTg0IiByeD0iMyIgcnk9IjMiIHN0eWxlPSJzdHJva2U6IzAzODA0ODtzdHJva2Utd2lkdGg6MS4wOyIvPjx0ZXh0IGZpbGw9IiMwMDAwMDAiIGZvbnQtZmFtaWx5PSJzYW5zLXNlcmlmIiBmb250LXNpemU9IjE0IiBsZW5ndGhBZGp1c3Q9InNwYWNpbmciIHRleHRMZW5ndGg9IjEyOSIgeD0iMzIzLjUiIHk9Ijk0LjIwMzEiPm5vbSA6IFZBUkNIQVIoMTAwKTwvdGV4dD48ZWxsaXBzZSBjeD0iMzE0LjUiIGN5PSIxMDQuOTQ1MyIgZmlsbD0iIzg0QkU4NCIgcng9IjMiIHJ5PSIzIiBzdHlsZT0ic3Ryb2tlOiMwMzgwNDg7c3Ryb2tlLXdpZHRoOjEuMDsiLz48dGV4dCBmaWxsPSIjMDAwMDAwIiBmb250LWZhbWlseT0ic2Fucy1zZXJpZiIgZm9udC1zaXplPSIxNCIgbGVuZ3RoQWRqdXN0PSJzcGFjaW5nIiB0ZXh0TGVuZ3RoPSIxNTAiIHg9IjMyMy41IiB5PSIxMDkuMTg3NSI+cHJlbm9tIDogVkFSQ0hBUigxMDApPC90ZXh0PjxlbGxpcHNlIGN4PSIzMTQuNSIgY3k9IjExOS45Mjk3IiBmaWxsPSIjODRCRTg0IiByeD0iMyIgcnk9IjMiIHN0eWxlPSJzdHJva2U6IzAzODA0ODtzdHJva2Utd2lkdGg6MS4wOyIvPjx0ZXh0IGZpbGw9IiMwMDAwMDAiIGZvbnQtZmFtaWx5PSJzYW5zLXNlcmlmIiBmb250LXNpemU9IjE0IiBsZW5ndGhBZGp1c3Q9InNwYWNpbmciIHRleHRMZW5ndGg9IjE0MyIgeD0iMzIzLjUiIHk9IjEyNC4xNzE5Ij5lbWFpbCA6IFZBUkNIQVIoMTAwKTwvdGV4dD48ZWxsaXBzZSBjeD0iMzE0LjUiIGN5PSIxMzQuOTE0MSIgZmlsbD0iIzg0QkU4NCIgcng9IjMiIHJ5PSIzIiBzdHlsZT0ic3Ryb2tlOiMwMzgwNDg7c3Ryb2tlLXdpZHRoOjEuMDsiLz48dGV4dCBmaWxsPSIjMDAwMDAwIiBmb250LWZhbWlseT0ic2Fucy1zZXJpZiIgZm9udC1zaXplPSIxNCIgbGVuZ3RoQWRqdXN0PSJzcGFjaW5nIiB0ZXh0TGVuZ3RoPSIxNjMiIHg9IjMyMy41IiB5PSIxMzkuMTU2MyI+dGVsZXBob25lIDogVkFSQ0hBUigyMCk8L3RleHQ+PGVsbGlwc2UgY3g9IjMxNC41IiBjeT0iMTQ5Ljg5ODQiIGZpbGw9IiM4NEJFODQiIHJ4PSIzIiByeT0iMyIgc3R5bGU9InN0cm9rZTojMDM4MDQ4O3N0cm9rZS13aWR0aDoxLjA7Ii8+PHRleHQgZmlsbD0iIzAwMDAwMCIgZm9udC1mYW1pbHk9InNhbnMtc2VyaWYiIGZvbnQtc2l6ZT0iMTQiIGxlbmd0aEFkanVzdD0ic3BhY2luZyIgdGV4dExlbmd0aD0iMTM1IiB4PSIzMjMuNSIgeT0iMTU0LjE0MDYiPnBvc3RlIDogVkFSQ0hBUig1MCk8L3RleHQ+PGVsbGlwc2UgY3g9IjMxNC41IiBjeT0iMTY0Ljg4MjgiIGZpbGw9IiM4NEJFODQiIHJ4PSIzIiByeT0iMyIgc3R5bGU9InN0cm9rZTojMDM4MDQ4O3N0cm9rZS13aWR0aDoxLjA7Ii8+PHRleHQgZmlsbD0iIzAwMDAwMCIgZm9udC1mYW1pbHk9InNhbnMtc2VyaWYiIGZvbnQtc2l6ZT0iMTQiIGxlbmd0aEFkanVzdD0ic3BhY2luZyIgdGV4dExlbmd0aD0iMTU2IiB4PSIzMjMuNSIgeT0iMTY5LjEyNSI+cXJfY29kZSA6IFZBUkNIQVIoMjU1KTwvdGV4dD48L2c+PCEtLWNsYXNzIFBvaW50YWdlLS0+PGcgaWQ9ImVsZW1fUG9pbnRhZ2UiPjxyZWN0IGNvZGVMaW5lPSIxMiIgZmlsbD0iI0YxRjFGMSIgaGVpZ2h0PSIxMjIuOTIxOSIgaWQ9IlBvaW50YWdlIiByeD0iMi41IiByeT0iMi41IiBzdHlsZT0ic3Ryb2tlOiMxODE4MTg7c3Ryb2tlLXdpZHRoOjAuNTsiIHdpZHRoPSIyODAiIHg9IjciIHk9IjI1MCIvPjxlbGxpcHNlIGN4PSIxMTQuNzUiIGN5PSIyNjYiIGZpbGw9IiNBREQxQjIiIHJ4PSIxMSIgcnk9IjExIiBzdHlsZT0ic3Ryb2tlOiMxODE4MTg7c3Ryb2tlLXdpZHRoOjEuMDsiLz48cGF0aCBkPSJNMTE4LjM3NSwyNzIgTDExOC4zNzUsMjcwLjI1IEwxMTMuMDYyNSwyNzAuMjUgUTExMy4wNjI1LDI3MC4yNSAxMTMuMDYyNSwyNjYuNjg3NSBMMTE3LjMxMjUsMjY2LjY4NzUgTDExNy4zMTI1LDI2NC45Mzc1IEwxMTMuMDYyNSwyNjQuOTM3NSBMMTEzLjA2MjUsMjYyLjQzNzUgTDExOC4zNzUsMjYyLjQzNzUgTDExOC4zNzUsMjYwLjY4NzUgTDExMS4zMTI1LDI2MC42ODc1IFExMTEuMzEyNSwyNjAuNjg3NSAxMTEuMzEyNSwyNzIgTDExOC4zNzUsMjcyIFogIiBmaWxsPSIjMDAwMDAwIi8+PHRleHQgZmlsbD0iIzAwMDAwMCIgZm9udC1mYW1pbHk9InNhbnMtc2VyaWYiIGZvbnQtc2l6ZT0iMTQiIGxlbmd0aEFkanVzdD0ic3BhY2luZyIgdGV4dExlbmd0aD0iNTYiIHg9IjEzNS4yNSIgeT0iMjcxLjc0MjIiPlBvaW50YWdlPC90ZXh0PjxsaW5lIHN0eWxlPSJzdHJva2U6IzE4MTgxODtzdHJva2Utd2lkdGg6MC41OyIgeDE9IjgiIHgyPSIyODYiIHkxPSIyODIiIHkyPSIyODIiLz48ZWxsaXBzZSBjeD0iMTgiIGN5PSIyOTQuOTkyMiIgZmlsbD0ibm9uZSIgcng9IjMiIHJ5PSIzIiBzdHlsZT0ic3Ryb2tlOiMwMzgwNDg7c3Ryb2tlLXdpZHRoOjEuMDsiLz48dGV4dCBmaWxsPSIjMDAwMDAwIiBmb250LWZhbWlseT0ic2Fucy1zZXJpZiIgZm9udC1zaXplPSIxNCIgbGVuZ3RoQWRqdXN0PSJzcGFjaW5nIiB0ZXh0TGVuZ3RoPSI3NyIgeD0iMjciIHk9IjI5OS4yMzQ0Ij5pZCA6IElOVCBQSzwvdGV4dD48ZWxsaXBzZSBjeD0iMTgiIGN5PSIzMDkuOTc2NiIgZmlsbD0ibm9uZSIgcng9IjMiIHJ5PSIzIiBzdHlsZT0ic3Ryb2tlOiMwMzgwNDg7c3Ryb2tlLXdpZHRoOjEuMDsiLz48dGV4dCBmaWxsPSIjMDAwMDAwIiBmb250LWZhbWlseT0ic2Fucy1zZXJpZiIgZm9udC1zaXplPSIxNCIgbGVuZ3RoQWRqdXN0PSJzcGFjaW5nIiB0ZXh0TGVuZ3RoPSIxMzQiIHg9IjI3IiB5PSIzMTQuMjE4OCI+ZW1wbG95ZV9pZCA6IElOVCBGSzwvdGV4dD48ZWxsaXBzZSBjeD0iMTgiIGN5PSIzMjQuOTYwOSIgZmlsbD0ibm9uZSIgcng9IjMiIHJ5PSIzIiBzdHlsZT0ic3Ryb2tlOiMwMzgwNDg7c3Ryb2tlLXdpZHRoOjEuMDsiLz48dGV4dCBmaWxsPSIjMDAwMDAwIiBmb250LWZhbWlseT0ic2Fucy1zZXJpZiIgZm9udC1zaXplPSIxNCIgbGVuZ3RoQWRqdXN0PSJzcGFjaW5nIiB0ZXh0TGVuZ3RoPSIxNTQiIHg9IjI3IiB5PSIzMjkuMjAzMSI+aGV1cmVfc2NhbiA6IFRJTUVTVEFNUDwvdGV4dD48bGluZSBzdHlsZT0ic3Ryb2tlOiMxODE4MTg7c3Ryb2tlLXdpZHRoOjAuNTsiIHgxPSI4IiB4Mj0iMjg2IiB5MT0iMzM0Ljk1MzEiIHkyPSIzMzQuOTUzMSIvPjxlbGxpcHNlIGN4PSIxOCIgY3k9IjM0Ny45NDUzIiBmaWxsPSIjODRCRTg0IiByeD0iMyIgcnk9IjMiIHN0eWxlPSJzdHJva2U6IzAzODA0ODtzdHJva2Utd2lkdGg6MS4wOyIvPjx0ZXh0IGZpbGw9IiMwMDAwMDAiIGZvbnQtZmFtaWx5PSJzYW5zLXNlcmlmIiBmb250LXNpemU9IjE0IiBsZW5ndGhBZGp1c3Q9InNwYWNpbmciIHRleHRMZW5ndGg9IjE1NiIgeD0iMjciIHk9IjM1Mi4xODc1Ij5xcl9jb2RlIDogVkFSQ0hBUigyNTUpPC90ZXh0PjxlbGxpcHNlIGN4PSIxOCIgY3k9IjM2Mi45Mjk3IiBmaWxsPSIjODRCRTg0IiByeD0iMyIgcnk9IjMiIHN0eWxlPSJzdHJva2U6IzAzODA0ODtzdHJva2Utd2lkdGg6MS4wOyIvPjx0ZXh0IGZpbGw9IiMwMDAwMDAiIGZvbnQtZmFtaWx5PSJzYW5zLXNlcmlmIiBmb250LXNpemU9IjE0IiBsZW5ndGhBZGp1c3Q9InNwYWNpbmciIHRleHRMZW5ndGg9IjI1NCIgeD0iMjciIHk9IjM2Ny4xNzE5Ij50eXBlX3NjYW4gOiBFTlVNKCdlbnRyJiMyMzM7ZScsICdzb3J0aWUnKTwvdGV4dD48L2c+PCEtLWNsYXNzIEhvcmFpcmVUcmF2YWlsLS0+PGcgaWQ9ImVsZW1fSG9yYWlyZVRyYXZhaWwiPjxyZWN0IGNvZGVMaW5lPSIyMCIgZmlsbD0iI0YxRjFGMSIgaGVpZ2h0PSIxMjIuOTIxOSIgaWQ9IkhvcmFpcmVUcmF2YWlsIiByeD0iMi41IiByeT0iMi41IiBzdHlsZT0ic3Ryb2tlOiMxODE4MTg7c3Ryb2tlLXdpZHRoOjAuNTsiIHdpZHRoPSI2NzciIHg9IjMyMi41IiB5PSIyNTAiLz48ZWxsaXBzZSBjeD0iNjA3Ljc1IiBjeT0iMjY2IiBmaWxsPSIjQUREMUIyIiByeD0iMTEiIHJ5PSIxMSIgc3R5bGU9InN0cm9rZTojMTgxODE4O3N0cm9rZS13aWR0aDoxLjA7Ii8+PHBhdGggZD0iTTYxMS4zNzUsMjcyIEw2MTEuMzc1LDI3MC4yNSBMNjA2LjA2MjUsMjcwLjI1IFE2MDYuMDYyNSwyNzAuMjUgNjA2LjA2MjUsMjY2LjY4NzUgTDYxMC4zMTI1LDI2Ni42ODc1IEw2MTAuMzEyNSwyNjQuOTM3NSBMNjA2LjA2MjUsMjY0LjkzNzUgTDYwNi4wNjI1LDI2Mi40Mzc1IEw2MTEuMzc1LDI2Mi40Mzc1IEw2MTEuMzc1LDI2MC42ODc1IEw2MDQuMzEyNSwyNjAuNjg3NSBRNjA0LjMxMjUsMjYwLjY4NzUgNjA0LjMxMjUsMjcyIEw2MTEuMzc1LDI3MiBaICIgZmlsbD0iIzAwMDAwMCIvPjx0ZXh0IGZpbGw9IiMwMDAwMDAiIGZvbnQtZmFtaWx5PSJzYW5zLXNlcmlmIiBmb250LXNpemU9IjE0IiBsZW5ndGhBZGp1c3Q9InNwYWNpbmciIHRleHRMZW5ndGg9Ijk4IiB4PSI2MjguMjUiIHk9IjI3MS43NDIyIj5Ib3JhaXJlVHJhdmFpbDwvdGV4dD48bGluZSBzdHlsZT0ic3Ryb2tlOiMxODE4MTg7c3Ryb2tlLXdpZHRoOjAuNTsiIHgxPSIzMjMuNSIgeDI9Ijk5OC41IiB5MT0iMjgyIiB5Mj0iMjgyIi8+PGVsbGlwc2UgY3g9IjMzMy41IiBjeT0iMjk0Ljk5MjIiIGZpbGw9Im5vbmUiIHJ4PSIzIiByeT0iMyIgc3R5bGU9InN0cm9rZTojMDM4MDQ4O3N0cm9rZS13aWR0aDoxLjA7Ii8+PHRleHQgZmlsbD0iIzAwMDAwMCIgZm9udC1mYW1pbHk9InNhbnMtc2VyaWYiIGZvbnQtc2l6ZT0iMTQiIGxlbmd0aEFkanVzdD0ic3BhY2luZyIgdGV4dExlbmd0aD0iNzciIHg9IjM0Mi41IiB5PSIyOTkuMjM0NCI+aWQgOiBJTlQgUEs8L3RleHQ+PGVsbGlwc2UgY3g9IjMzMy41IiBjeT0iMzA5Ljk3NjYiIGZpbGw9Im5vbmUiIHJ4PSIzIiByeT0iMyIgc3R5bGU9InN0cm9rZTojMDM4MDQ4O3N0cm9rZS13aWR0aDoxLjA7Ii8+PHRleHQgZmlsbD0iIzAwMDAwMCIgZm9udC1mYW1pbHk9InNhbnMtc2VyaWYiIGZvbnQtc2l6ZT0iMTQiIGxlbmd0aEFkanVzdD0ic3BhY2luZyIgdGV4dExlbmd0aD0iMTM0IiB4PSIzNDIuNSIgeT0iMzE0LjIxODgiPmVtcGxveWVfaWQgOiBJTlQgRks8L3RleHQ+PGVsbGlwc2UgY3g9IjMzMy41IiBjeT0iMzI0Ljk2MDkiIGZpbGw9Im5vbmUiIHJ4PSIzIiByeT0iMyIgc3R5bGU9InN0cm9rZTojMDM4MDQ4O3N0cm9rZS13aWR0aDoxLjA7Ii8+PHRleHQgZmlsbD0iIzAwMDAwMCIgZm9udC1mYW1pbHk9InNhbnMtc2VyaWYiIGZvbnQtc2l6ZT0iMTQiIGxlbmd0aEFkanVzdD0ic3BhY2luZyIgdGV4dExlbmd0aD0iMTI2IiB4PSIzNDIuNSIgeT0iMzI5LjIwMzEiPmhldXJlX2RlYnV0IDogVElNRTwvdGV4dD48ZWxsaXBzZSBjeD0iMzMzLjUiIGN5PSIzMzkuOTQ1MyIgZmlsbD0ibm9uZSIgcng9IjMiIHJ5PSIzIiBzdHlsZT0ic3Ryb2tlOiMwMzgwNDg7c3Ryb2tlLXdpZHRoOjEuMDsiLz48dGV4dCBmaWxsPSIjMDAwMDAwIiBmb250LWZhbWlseT0ic2Fucy1zZXJpZiIgZm9udC1zaXplPSIxNCIgbGVuZ3RoQWRqdXN0PSJzcGFjaW5nIiB0ZXh0TGVuZ3RoPSIxMTIiIHg9IjM0Mi41IiB5PSIzNDQuMTg3NSI+aGV1cmVfZmluIDogVElNRTwvdGV4dD48bGluZSBzdHlsZT0ic3Ryb2tlOiMxODE4MTg7c3Ryb2tlLXdpZHRoOjAuNTsiIHgxPSIzMjMuNSIgeDI9Ijk5OC41IiB5MT0iMzQ5LjkzNzUiIHkyPSIzNDkuOTM3NSIvPjxlbGxpcHNlIGN4PSIzMzMuNSIgY3k9IjM2Mi45Mjk3IiBmaWxsPSIjODRCRTg0IiByeD0iMyIgcnk9IjMiIHN0eWxlPSJzdHJva2U6IzAzODA0ODtzdHJva2Utd2lkdGg6MS4wOyIvPjx0ZXh0IGZpbGw9IiMwMDAwMDAiIGZvbnQtZmFtaWx5PSJzYW5zLXNlcmlmIiBmb250LXNpemU9IjE0IiBsZW5ndGhBZGp1c3Q9InNwYWNpbmciIHRleHRMZW5ndGg9IjY1MSIgeD0iMzQyLjUiIHk9IjM2Ny4xNzE5Ij5qb3VyX3NlbWFpbmUgOiBFTlVNKCdsdW5kaScsICdtYXJkaScsICdtZXJjcmVkaScsICdqZXVkaScsICd2ZW5kcmVkaScsICdzYW1lZGknLCAnZGltYW5jaGUnKTwvdGV4dD48L2c+PCEtLWxpbmsgRW1wbG95ZXMgdG8gUG9pbnRhZ2UtLT48ZyBpZD0ibGlua19FbXBsb3llc19Qb2ludGFnZSI+PHBhdGggY29kZUxpbmU9IjI5IiBkPSJNMzAwLjAxMzksMTgwLjQxMDUgQzI3MC43ODM5LDIwNS4yNTA1IDI1OS4xMzM1LDIxNS4xNjA3IDIzMS45NjM1LDIzOC4yNjA3ICIgZmlsbD0ibm9uZSIgaWQ9IkVtcGxveWVzLVBvaW50YWdlIiBzdHlsZT0ic3Ryb2tlOiMxODE4MTg7c3Ryb2tlLXdpZHRoOjEuMDsiLz48bGluZSBzdHlsZT0ic3Ryb2tlOiMxODE4MTg7c3Ryb2tlLXdpZHRoOjEuMDsiIHgxPSIzMDAuNDcxNyIgeDI9IjMwNS42NTIyIiB5MT0iMTc0Ljc3MjIiIHkyPSIxODAuODY4MyIvPjxsaW5lIHN0eWxlPSJzdHJva2U6IzE4MTgxODtzdHJva2Utd2lkdGg6MS4wOyIgeDE9IjI5OC4xODU3IiB4Mj0iMzAzLjM2NjIiIHkxPSIxNzYuNzE0OSIgeTI9IjE4Mi44MTEiLz48bGluZSBzdHlsZT0ic3Ryb2tlOiMxODE4MTg7c3Ryb2tlLXdpZHRoOjEuMDsiIHgxPSIzMDAuMDEzOSIgeDI9IjMwNi4xMSIgeTE9IjE4MC40MTA1IiB5Mj0iMTc1LjIzIi8+PGxpbmUgc3R5bGU9InN0cm9rZTojMTgxODE4O3N0cm9rZS13aWR0aDoxLjA7IiB4MT0iMjI0LjM0NDkiIHgyPSIyMjIuMTM2NCIgeTE9IjI0NC43MzgxIiB5Mj0iMjU0LjQ5MTIiLz48bGluZSBzdHlsZT0ic3Ryb2tlOiMxODE4MTg7c3Ryb2tlLXdpZHRoOjEuMDsiIHgxPSIyMjQuMzQ0OSIgeDI9IjIxNC4zNjM2IiB5MT0iMjQ0LjczODEiIHkyPSIyNDUuMzQ4OCIvPjxsaW5lIHN0eWxlPSJzdHJva2U6IzE4MTgxODtzdHJva2Utd2lkdGg6MS4wOyIgeDE9IjIyNC4zNDQ5IiB4Mj0iMjE4LjI1IiB5MT0iMjQ0LjczODEiIHkyPSIyNDkuOTIiLz48ZWxsaXBzZSBjeD0iMjI4LjkxNjEiIGN5PSIyNDAuODUxNyIgZmlsbD0ibm9uZSIgcng9IjQiIHJ5PSI0IiBzdHlsZT0ic3Ryb2tlOiMxODE4MTg7c3Ryb2tlLXdpZHRoOjEuMDsiLz48dGV4dCBmaWxsPSIjMDAwMDAwIiBmb250LWZhbWlseT0ic2Fucy1zZXJpZiIgZm9udC1zaXplPSIxMyIgbGVuZ3RoQWRqdXN0PSJzcGFjaW5nIiB0ZXh0TGVuZ3RoPSI0NyIgeD0iMjY5IiB5PSIyMTguMjg5MSI+ciYjMjMzO2FsaXNlPC90ZXh0PjwvZz48IS0tbGluayBFbXBsb3llcyB0byBIb3JhaXJlVHJhdmFpbC0tPjxnIGlkPSJsaW5rX0VtcGxveWVzX0hvcmFpcmVUcmF2YWlsIj48cGF0aCBjb2RlTGluZT0iMzAiIGQ9Ik01MDcuOTg2MSwxODAuNDEwNSBDNTM3LjIxNjEsMjA1LjI1MDUgNTQ4Ljg2NjUsMjE1LjE2MDcgNTc2LjAzNjUsMjM4LjI2MDcgIiBmaWxsPSJub25lIiBpZD0iRW1wbG95ZXMtSG9yYWlyZVRyYXZhaWwiIHN0eWxlPSJzdHJva2U6IzE4MTgxODtzdHJva2Utd2lkdGg6MS4wOyIvPjxsaW5lIHN0eWxlPSJzdHJva2U6IzE4MTgxODtzdHJva2Utd2lkdGg6MS4wOyIgeDE9IjUwMi4zNDc4IiB4Mj0iNTA3LjUyODMiIHkxPSIxODAuODY4MyIgeTI9IjE3NC43NzIyIi8+PGxpbmUgc3R5bGU9InN0cm9rZTojMTgxODE4O3N0cm9rZS13aWR0aDoxLjA7IiB4MT0iNTA0LjYzMzgiIHgyPSI1MDkuODE0MyIgeTE9IjE4Mi44MTEiIHkyPSIxNzYuNzE0OSIvPjxsaW5lIHN0eWxlPSJzdHJva2U6IzE4MTgxODtzdHJva2Utd2lkdGg6MS4wOyIgeDE9IjUwNy45ODYxIiB4Mj0iNTAxLjg5IiB5MT0iMTgwLjQxMDUiIHkyPSIxNzUuMjMiLz48bGluZSBzdHlsZT0ic3Ryb2tlOiMxODE4MTg7c3Ryb2tlLXdpZHRoOjEuMDsiIHgxPSI1ODMuNjU1MSIgeDI9IjU5My42MzY0IiB5MT0iMjQ0LjczODEiIHkyPSIyNDUuMzQ4OCIvPjxsaW5lIHN0eWxlPSJzdHJva2U6IzE4MTgxODtzdHJva2Utd2lkdGg6MS4wOyIgeDE9IjU4My42NTUxIiB4Mj0iNTg1Ljg2MzYiIHkxPSIyNDQuNzM4MSIgeTI9IjI1NC40OTEyIi8+PGxpbmUgc3R5bGU9InN0cm9rZTojMTgxODE4O3N0cm9rZS13aWR0aDoxLjA7IiB4MT0iNTgzLjY1NTEiIHgyPSI1ODkuNzUiIHkxPSIyNDQuNzM4MSIgeTI9IjI0OS45MiIvPjxlbGxpcHNlIGN4PSI1NzkuMDgzOSIgY3k9IjI0MC44NTE3IiBmaWxsPSJub25lIiByeD0iNCIgcnk9IjQiIHN0eWxlPSJzdHJva2U6IzE4MTgxODtzdHJva2Utd2lkdGg6MS4wOyIvPjx0ZXh0IGZpbGw9IiMwMDAwMDAiIGZvbnQtZmFtaWx5PSJzYW5zLXNlcmlmIiBmb250LXNpemU9IjEzIiBsZW5ndGhBZGp1c3Q9InNwYWNpbmciIHRleHRMZW5ndGg9IjI2IiB4PSI1NDkiIHk9IjIxOC4yODkxIj5zdWl0PC90ZXh0PjwvZz48IS0tU1JDPVtiTEJCSmlDbTRCcGRBd25TcVdlZzVRSFNrNEtlZzVNTEFXZzFRLUo2MnQ3Ykh4MlRJYjdCMV80VF8xWkVnb0kyMmQ1UnB3bXpFeEM2T1FZZmFIbG9haWFRajhrRTNhOU5ZMTlxWHpSUjVDTVJ6WW1hankxcGFEb2xXY0hzaXJwRU14WEtTODQxWllkeFpKMzBlMm9hVzE1dkVwbWRqSGRaVmUtX2dJb05QN0IzenBrQU8wRFBoVzBSQWVMaklEVEgtOVc2S1VveUVteHF4Yzk5WFM2bFNDYVRURXdwQ193bS1La3RXNGYxZmRDeTVNcVRya01QMlJURnFTb3BTd1pGM18ya2FRVWJDWEl5LU5ZeWJMSU9BYVdMRmpaR19abGFOYk9ncXF0VVJRUVQ4Z2k0ZU9xVW53ZWxHRGNPa2RlRkxMU1NHOTAxcjladDVRNFNZeG5lZmxvc0ljMU5jVHhoMjd3WEdtMkQ4bXlibURmTFE2VnVLa1hxTVlwYTRHckJpRXNrSkdDcGdpN3pxSk5EZWtkTDVKTms1bTAwXS0tPjwvZz48L3N2Zz4=;" vertex="1" parent="1">
            <mxGeometry x="-500" y="1250" width="926.37" height="349" as="geometry" />
          </mxCell>
        </UserObject>
      </root>
    </mxGraphModel>
  </diagram>
</mxfile>
